<svg width="442" height="722" viewBox="0 0 442 722" fill="none" xmlns="http://www.w3.org/2000/svg">
<path d="M172.636 3.01492C170.498 2.30091 177.54 26.9621 182.203 41.061C180.086 51.338 181.475 57.5421 181.992 64.5554C181.762 71.4956 177.754 77.5777 180.694 87.6729C183.598 97.6436 185.327 106.039 186.712 118.933C187.379 125.154 191.193 137.161 195.029 156.43C197.029 166.476 198.39 177.189 200.453 188.166C202.516 199.144 205.2 210.054 207.307 219.211C209.414 228.367 210.9 235.552 213.268 244.106C215.637 252.661 219.621 262.097 220.592 268.18C221.316 272.715 222.327 278.246 223.463 284.152C224.854 291.387 226.43 299.186 227.891 306.413L228.066 307.277C229.423 313.993 233.247 324.631 236.81 341.228C238.904 350.979 240.78 363.443 242.183 371.393C243.962 381.469 246.462 394.144 248.623 410.494C248.894 412.549 249.16 414.662 249.419 416.835C249.948 421.282 250.266 424.964 250.79 429.248C251.258 433.07 251.889 437.371 252.98 443.123C255.294 455.321 259.548 473.491 261.836 485.209C264.125 496.928 264.438 502.039 265.307 511.466C266.176 520.894 267.255 534.283 268.618 542.079C270.387 552.204 270.549 555.618 273.268 567.359C275.771 578.166 281.738 597.975 283.373 609.509C286.039 628.317 284.32 636.04 289.095 646.187C292.235 652.86 297.585 669.1 304.663 690.9C309.889 706.995 312.53 716.33 316.452 717.915C317.44 718.314 318.765 718.588 319.386 717.899C320.658 716.486 324.429 714.445 324.567 710.421C324.642 708.244 324.253 704.91 323.679 700.205C322.287 688.801 316.073 682.163 312.657 660.286C310.324 645.35 308.658 635.622 307.192 631.197C305.455 625.956 304.388 621.883 300.438 606.384L300.16 605.292C296.45 590.745 289.795 564.645 284.599 532.35C279.271 499.229 275.59 460.758 273.895 437.025C272.243 413.89 272.47 405.012 272.602 399.873L272.624 399.027C272.745 394.308 272.785 392.774 270.683 386.725C264.731 369.591 258.838 355.477 254.62 344.021C251.661 335.985 247.461 323.579 244.629 313.469C241.797 303.358 240.377 295.772 230.938 255.01C224.007 225.079 213.03 178.435 204.208 140.042C201.015 126.147 198.105 113.332 195.77 102.782C186.986 63.0826 186.268 55.6789 186.072 50.1375C185.751 41.0509 186.053 35.7475 184.199 30.144C178.123 11.7911 177.905 4.77448 172.636 3.01492Z" fill="#EEC545"/>
<path d="M266.715 526.758C266.192 521.453 265.725 516.001 265.307 511.466C262.478 514.058 256.827 520.763 253.715 518.156C252.83 517.415 256.107 509.36 247.835 508.722C243.882 508.417 239.859 510.046 237.373 509.164C234.854 508.271 230.656 498.407 223.878 498.197C219.655 498.066 213.13 499.736 212.047 502.689C211.401 504.448 210.595 506.136 210.704 507.544C210.957 510.832 212.254 515.188 215.39 517.032C219.652 519.539 225.975 521.591 224.021 523.884C223.187 524.863 221.531 525.493 219.362 526.651C212.918 530.089 209.218 534.338 204.913 533.977C202.142 533.744 200.202 531.214 196.402 529.729C194.977 529.172 192.777 529.428 190.415 530.64C189.438 531.141 188.776 531.61 189.211 533.334C190.413 538.094 192.256 542.909 190.594 544.789C189.807 545.68 187.826 547.392 185.065 547.187C181.691 546.938 178.57 545.456 173.745 542.626C167.793 539.135 162.757 536.015 159.771 536.798C157.638 537.357 155.113 538.067 155.219 539.332C155.336 540.723 155.711 542.223 156.726 543C159.207 544.9 178.246 553.843 174.07 558.995C172.388 561.071 170.872 563.927 167.485 564.011C164.794 564.078 162.195 563.184 156.219 559.777C145.156 553.467 133.875 547.344 130.575 548.245C128.593 548.786 126.795 549.307 126.051 550.252C125.659 550.749 125.402 551.43 125.369 552.059C125.337 552.688 125.484 553.271 125.824 553.812C126.524 554.924 127.938 556.204 129.76 557.335C132.883 559.273 144.92 566.875 153.632 571.354L154.146 571.619C160.777 575.028 167.117 578.289 171.254 579.253C176.424 580.458 177.939 580.762 178.504 580.734C181.032 581.346 185.617 583.708 185.782 581.369C185.847 580.436 185.336 579.182 184.521 578.012C182.95 575.757 179.33 571.795 181.98 570.581C184.666 569.351 189.784 570.229 194.696 571.319C199.826 572.456 202.555 574.035 205.728 574.815C207.165 575.169 210.071 574.871 213.018 573.152C214.148 572.493 214.51 571.918 214.456 571.177C214.336 569.548 214.839 567.144 213.174 564.392C211.27 561.245 206.426 558.557 206.288 555.607C206.265 555.126 206.772 554.856 207.328 554.559L207.392 554.525C210.064 553.095 212.823 551.01 215.193 548.866C218.161 546.179 223.901 541.982 227.239 542.544C229.796 542.975 232.446 544.306 234.834 545.877C237.27 547.481 239.841 549.618 242.614 551.112C246.519 553.215 249.667 554.446 252.248 552.975C252.852 552.63 253.46 552.13 253.489 551.537C253.546 550.366 253.313 549.077 252.517 548.089C250.744 545.889 244.043 541.101 246.625 539.4C249.411 537.565 252.275 535.506 256.497 533.27C261.117 530.823 262.7 530.27 266.715 526.758Z" fill="#EEC545"/>
<path d="M280.412 502.868C285.781 499.083 291.58 495.44 292.521 494.372C292.959 493.874 292.771 493.108 292.505 492.441C290.532 487.509 283.503 482.533 281.525 480.445C280.641 479.512 279.446 477.429 278.238 474.968C277.779 474.032 278.27 473.48 278.755 473.122C280.748 471.647 286.705 473.852 290.975 475.594C293.039 476.436 294.661 477.486 295.811 478.01C296.988 478.546 299.026 478.059 301.361 477.132C305.825 475.359 308.125 470.656 309.874 468.674C314.04 463.954 294.21 456.999 290.927 453.775C288.315 451.209 287.77 448.92 287.523 447.456C287.412 446.8 287.856 446.279 288.313 445.88C289.247 445.062 290.598 444.713 291.888 444.397C294.769 443.69 301.625 447.607 315.81 452.883C325.125 456.348 330.663 457.526 335.195 459.036C344.207 462.038 352.556 468.882 356.095 472.342C357.735 473.947 358.753 476.298 358.862 478.662C358.909 479.679 357.239 480.075 356.085 480.272C349.966 481.315 342.495 477.31 334.136 476.614C329.603 476.236 326.94 477.343 321.804 478.918C317.867 480.125 315.155 484.767 314.504 487.153C314.346 487.732 314.751 488.315 315.142 488.779C316.736 490.669 320.036 490.777 322.77 490.6C324.162 490.509 325.262 488.769 326.704 486.822C327.066 486.334 327.574 485.969 328.178 485.873C329.527 485.658 331.325 487.224 333.035 488.958C334.195 490.134 334.518 491.396 334.589 492.599C334.625 493.206 334.311 493.809 333.963 494.353C331.852 497.648 325.332 498.411 322.888 499.691C319.802 501.309 316.503 502.842 313.508 502.834C310.391 502.825 308.446 498.841 307.15 496.617L307.145 496.607C306.833 496.071 306.534 495.558 305.775 495.465C301.276 494.917 297.08 498.671 294.947 500.943C294.497 501.422 294.052 501.907 293.909 502.439C293.766 502.971 293.952 503.548 294.328 503.988C296.046 506.002 299.416 507.587 302.484 509.656C303.963 510.654 305.051 512.151 305.782 513.707C306.116 514.42 306.046 515.11 305.833 515.721C304.839 518.577 301.621 519.642 300.378 519.897C297.172 520.556 292.807 515.834 290.318 513.799C289.315 512.979 283.98 516.166 282.212 516.428L280.412 502.868Z" fill="#EEC545"/>
<path d="M250.79 429.248C250.266 424.964 249.948 421.282 249.419 416.835C249.16 414.662 248.894 412.549 248.623 410.494C243.444 412.226 234.728 415.286 229.66 416.452C228.536 416.711 227.811 415.983 227.254 415.358C224.241 411.978 221.647 404.652 219.249 399.952C216.881 395.311 215.591 391.355 212.1 381.111C211.374 378.978 212.078 378.134 213.475 377.344C214.871 376.554 217.205 375.769 218.454 374.989C219.702 374.209 219.795 373.458 219.837 372.696C220.009 369.561 218.202 364.337 215.709 361.258C213.089 358.021 205.881 362.75 202.478 362.458C200.719 362.307 199.623 360.617 198.893 358.93C197.413 355.51 197.822 350.943 197.173 345.74C196.435 339.815 193.223 335.412 191.248 333.495C189.477 331.775 187.538 331.023 185.886 330.612C184.122 330.174 182.441 330.844 181.224 331.843C171.434 339.874 190.193 365.846 190.1 367.319C189.874 370.902 184.356 372.709 183.173 375.513C182.529 377.038 183.712 379.189 184.605 381.26C185.363 383.017 187.23 383.803 189.079 384.467C193.069 385.898 195.668 384.654 197.2 384.634C198.63 384.616 199.537 387.966 202.56 396.588C208.958 414.836 213.302 427.387 214.335 428.74C215.629 430.434 217.124 431.806 218.842 432.516C223.63 434.496 228.009 431.51 232.621 430.474C237.284 429.426 246.724 429.54 250.79 429.248Z" fill="#EEC545"/>
<path d="M223.463 284.152C222.327 278.246 221.316 272.715 220.592 268.18C209.994 271.076 201.285 267.899 194.795 268.82C178.831 271.088 173.29 271.498 169.401 271.518C164.666 271.543 159.021 271.671 154.586 272.11C150.613 272.504 145.933 271.416 136.729 273.268C128.317 274.96 123.634 276.073 112.265 278.856C106.096 280.365 101.504 279.509 98.1226 279.772C93.7059 280.116 80.9924 281.744 70.9701 280.492C69.6174 280.322 68.271 280.276 67.6261 277.689C63.375 260.639 61.9539 240.173 56.2746 237.407C55.4694 237.014 54.5264 236.919 53.6794 237.135C52.8324 237.351 51.9522 237.797 51.596 238.743C50.8105 240.829 49.7842 244.091 49.783 250.148C49.781 259.889 53.4162 272.444 51.7015 279.196C51.4264 280.279 51.099 281.301 49.3563 281.886C38.5543 285.514 25.8637 292.052 23.9229 288.306C20.8997 282.47 16.8335 268.89 18.0125 260.951C19.1946 252.991 19.4217 245.216 15.5017 242.186C14.82 241.659 13.883 241.375 13.0854 241.689C11.4827 242.319 9.92956 243.485 9.65901 245.241C9.05551 249.158 10.2026 253.649 7.55286 272.776C6.36809 281.328 3.69675 293.273 3.14875 299.985C2.15224 312.191 6.42328 329.325 8.09323 334.898C8.40043 336.857 9.19594 339.857 10.393 341.784C11.5901 343.711 10.8206 342.836 12.1249 342.987C13.4292 343.139 14.9463 343.028 16.0112 342.181C20.7182 338.435 25.3086 329.601 27.3216 324.218C28.9005 319.996 29.8034 315.827 29.3472 312.113C28.8617 308.162 24.3366 300.891 28.026 297.241C29.2655 296.015 30.9923 295.248 32.7918 295.295C36.6985 295.397 41.0423 294.937 45.0796 297.735C46.7376 298.884 48.3806 308.7 51.3802 322.499C53.5797 332.618 54.6244 346.898 60.3946 351.358C61.1921 351.975 62.3464 352.469 62.8254 351.861C65.3569 348.646 68.3736 342.756 68.2876 332.959C68.2401 327.538 53.6336 298.385 64.9722 296.104C66.4135 295.814 69.2186 296.339 73.0559 297.094C77.8827 298.045 82.339 299.139 88.9489 297.695C96.5269 296.039 107.412 293.594 123.528 291.208C141.472 288.55 148.243 288.188 157.61 287.553C163.957 287.123 168.237 285.142 172.529 286.435L172.709 286.489C177.186 287.837 182.41 289.411 186.902 293.457C190.44 296.646 194.883 300.411 197.393 305.245C199.961 310.193 203.153 319.284 206.461 317.574C209.514 315.996 212.801 313.142 214.032 309.222C214.653 307.244 215.015 304.918 213.666 303.351C210.706 299.909 205.074 298.007 203.228 294.342C202.263 292.427 201.245 290.265 201.796 288.557C202.058 287.747 202.699 286.998 203.535 286.735C205.17 286.221 219.307 284.14 223.463 284.152Z" fill="#EEC545"/>
<path d="M204.208 140.042C205.203 144.372 206.225 148.807 207.266 153.312C212.262 152.838 232.369 149.853 240.494 148.712C246.094 147.926 250.487 147.632 255.034 148.897C260.538 150.429 266.266 149.567 271.428 151.172C276.793 152.841 288.609 155.137 299.084 154.472C305.012 154.096 312.942 151.67 330.416 147.642C339.222 145.612 345.298 144.362 349.903 146.142C354.026 147.735 357.755 151.391 361.187 157.393C364.229 162.711 365.607 174.568 371.528 176.89C372.495 177.269 373.81 177.3 374.811 176.355C377.05 174.24 363.898 155.882 371.247 145.942C372.122 144.758 374.01 143.741 375.487 143.868C380.781 144.327 389.855 147.35 398.923 145.267C400.594 144.883 401.715 144.236 401.784 142.95C401.946 139.943 401.127 135.401 401.244 129.875C401.361 124.373 402.779 118.337 399.303 112.862C396.325 108.169 391.997 102.894 387.411 102.822C386.289 102.805 384.677 103.122 384.809 104.027C385.551 109.096 390.035 117.647 389.814 124.579C389.778 125.72 389.345 126.764 388.424 127.085C386.494 127.757 383.773 128.837 379.546 129.545C368.763 131.349 363.203 131.898 358.375 133.137C350.54 135.148 341.445 140.537 334.506 137.292C330.305 135.328 324.913 133.583 322.206 126.919C316.057 111.783 310.489 93.6837 300.817 89.0536C299.816 88.5741 297.598 87.4423 297.593 88.6114C297.541 100.838 306.423 124.657 304.739 131.656C304.363 133.221 303.727 134.274 301.852 134.977C297.25 136.704 292.691 138.033 289.553 138.795C283.456 140.274 275.591 143.615 272.264 140.974C270.584 139.64 268.569 136.789 267.952 132.942C267.192 128.202 268.336 121.083 265.945 113.898C263.278 105.882 259.506 95.5985 257.717 98.8338C257.047 100.046 255.675 103.325 256.596 107.628C257.792 113.217 259.992 119.141 258.305 123.702C256.541 128.47 248.493 129.684 248.522 133.929C248.528 134.834 249.351 135.927 249.186 136.566C249.022 137.205 247.905 137.398 246.798 137.544L246.448 137.59C241.345 138.262 234.31 139.188 221.359 139.697C213.042 140.023 208.478 140.521 204.208 140.042Z" fill="#EEC545"/>
<path d="M195.029 156.43C193.941 150.964 192.854 146.082 191.841 141.751C187.529 142.895 175.101 143.518 171.146 141.886C170.154 141.477 169.018 140.725 169.129 139.838C169.614 135.989 170.123 131.178 163.458 115.704C162.041 112.413 160.808 111.499 160.43 114.435C159.229 123.745 160.505 133.662 157.878 134.526C153.992 135.804 128.897 150.183 122.835 141.413C120.898 138.61 118.867 135.983 118.33 133.493C117.299 128.715 115.164 124.445 115.267 117.754C115.367 111.29 115.33 103.607 110.539 98.9191C109.61 98.0101 108.416 97.2827 107.571 97.7736C105.808 98.7981 103.771 100.585 103.59 102.905C103.076 109.47 110.035 125.804 108.432 134.595C108.207 135.83 107.914 137.263 106.651 137.763C101.314 139.878 96.935 141.024 92.1404 141.756C85.7247 142.735 74.6751 148.524 71.5517 140.002C65.4889 123.46 65.5773 113.034 60.0004 111.043C59.0722 110.712 57.944 110.989 57.4093 111.802C56.3246 113.452 56.3789 116.09 56.131 120.4C55.4904 131.539 56.4484 138.469 52.5734 140C50.7969 140.702 47.4286 140.763 42.231 141.983C37.6893 143.049 28.7278 150.532 23.0055 144.28C21.0776 142.174 20.3629 139.378 20.0207 136.265C19.0541 127.474 20.3122 122.103 20.8784 116.076C21.7786 106.492 19.5115 90.7673 17.3861 95.2977C16.8682 96.4017 16.3348 100.236 15.7521 105.204C14.9659 111.906 13.4287 118.952 12.5864 126.116C11.6626 133.974 7.97969 139.13 14.5993 163.061C19.0736 179.236 21.8454 187.533 21.9424 187.824C23.8515 192.729 28.6365 196.892 30.0631 197.575C30.7103 197.471 31.3723 196.541 31.5711 195.407C32.3752 190.817 32.1978 184.651 31.4621 178.714C30.8431 173.718 26.7136 164.86 32.4777 162.298C37.6103 160.016 42.5388 157.621 47.8012 157.682C52.7444 157.74 57.486 157.117 61.7905 156.165C65.8827 155.26 72.6551 152.922 78.216 154.651L78.3635 154.697C82.3109 155.925 86.6452 157.274 93.0435 155.703C102.468 153.39 107.222 152.138 112.135 152.269C113.312 152.3 114.667 152.516 115.386 154.066C117.153 157.876 118.064 162.454 118.786 168.184C119.941 177.349 120.58 189.718 126.743 193.835C127.719 194.487 128.978 194.914 129.76 194.631C130.542 194.348 130.901 193.4 131.226 192.162C133.194 184.666 136.295 175.22 134.704 166.386C133.517 159.799 130.504 150.672 134.501 148.687C136.262 147.812 138.648 147.415 141.906 146.541C150.216 144.314 157.513 143.542 161.314 147.969C165.132 152.416 167.98 159.533 167.516 166.591C167.139 172.324 167.112 184.126 173.079 185.461C174.063 185.681 175.294 185.602 176.201 184.838C178.098 183.242 179.559 180.869 179.331 177.902C178.844 171.587 174.196 159.13 179.918 157.482C181.841 156.929 191.852 156.794 195.029 156.43Z" fill="#EEC545"/>
<path d="M312.657 660.286C316.073 682.163 322.287 688.801 323.679 700.205C326.322 700.476 333.519 702.394 336.587 702.03C340.68 701.544 347.603 701.314 354.242 698.904C364.909 695.033 372.181 692.346 373.282 691.845C374.563 691.261 381.36 688.79 392.056 684.401C396.932 682.4 400.736 680.774 403.017 679.527C406.214 677.779 411.098 675.68 420.177 672.557C425.321 670.787 431.506 668.72 434.885 667.553C438.263 666.386 438.817 666.126 437.585 661.563C436.353 656.999 433.665 648.295 431.612 643.633C429.126 637.985 426.11 632.059 420.431 630.66C418.998 630.307 416.659 630.485 414.382 631.896C413.032 632.733 416.759 645.43 418.807 651.558C419.214 653.419 419.063 653.666 418.229 654.281C415.494 655.58 412.538 656.887 408.778 658.531C406.244 659.984 402.536 661.43 399.536 662.232C396.593 663.019 393.684 663.976 390.641 664.306C387.271 664.671 384.968 665.181 381.852 665.692C379.201 666.127 376.09 665.752 374.171 666.947C371.934 668.339 369.184 671.791 366.715 671.641C364.651 671.516 361.285 671.728 359.492 669.077C357.486 666.109 356.183 663.468 354.479 660.488C347.555 648.381 343.806 642.974 341.065 642.738C337.795 642.456 333.793 643.958 332.203 646.02L332.157 646.08C331.44 647.009 330.526 648.192 331.047 649.115C331.542 649.994 341.233 656.357 332.845 660.94C328.041 663.565 317.661 660.413 312.657 660.286Z" fill="#EEC545"/>
<path d="M306.594 696.879C303.806 696.724 293.089 697.164 283.601 697.923C279.134 698.281 275.336 697.779 268.552 696.639C261.768 695.498 252.104 693.529 245.391 692.336C238.678 691.142 235.209 690.784 231.617 690.062C228.025 689.34 224.415 688.264 219.22 686.375C214.025 684.485 207.353 681.815 202.892 680.114L202.528 679.975L202.527 679.974C196.227 677.572 191.02 675.587 184.617 672.537C181.199 670.91 177.639 669.039 172.552 667.174C167.465 665.309 160.978 663.47 153.842 662.163C146.706 660.856 139.117 660.136 134.081 659.379C122.353 657.616 117.879 654.115 115.678 653.114C113.02 651.905 110.282 651.152 104.988 649.346C94.8785 645.897 86.0156 644.855 82.3854 643.345C73.8462 639.794 69.6048 636.541 62.5862 633.397C51.4505 628.408 42.7769 624.807 39.9599 623.052C37.0048 621.212 35.5902 618.701 34.6869 615.95C33.9046 613.567 37.0662 610.356 43.0404 604.579C47.9265 599.854 49.5834 597.796 56.2058 595.333C57.6977 594.778 58.4067 594.932 58.9563 595.126C60.0067 595.496 60.8268 597.49 61.5891 600.013C63.6784 606.929 58.3538 617.885 59.6569 621.822C60.1072 623.183 61.6669 623.353 62.9033 623.488L62.9596 623.494C65.9682 623.823 69.682 621.72 73.1544 618.995C76.5501 616.33 78.5717 611.628 83.484 606.108C86.9034 602.265 89.8164 600.931 92.8138 600.088C94.1698 599.707 95.0702 601.289 95.6485 602.363C97.254 605.344 96.3339 610.484 97.3525 616.867C98.6475 624.983 101.828 630.064 102.977 630.543C107.066 632.245 115.374 629.414 118.904 628.309C124.763 626.474 125.903 613.426 127.449 611.497C128.127 610.65 129.187 610.155 130.32 609.826C133.468 608.912 136.877 614.307 139.035 617.959C141.666 622.413 140.196 626.395 139.302 632.04C138.277 638.511 139.369 640.137 140.076 641.054C140.952 642.19 144.574 641.964 150.514 642.482C158.911 643.214 166.694 644.818 171.729 644.88C174.809 644.919 176.273 643.69 177.135 642.607C180.126 638.853 182.843 629.347 184.643 625.499C185.992 622.617 188.346 622.38 189.43 622.3C190.642 622.209 191.536 623.87 192.47 625.348C194.774 628.994 193.033 634.635 192.839 638.072C192.66 641.248 194.138 644.33 195.88 646.653C196.543 647.536 202.674 649.14 211.301 651.658C218.419 653.734 223.889 652.341 225.422 651.13C232.026 645.909 235.665 635.713 237.912 632.775C238.651 631.809 240.916 631.092 243.61 630.286C244.691 629.962 245.302 630.263 245.818 630.595C246.862 631.267 247.497 632.451 248.037 633.614C249.051 635.797 246.903 641.519 245.554 647.111C244.47 651.605 245.225 657.957 246.017 660.704C246.778 663.342 250.456 662.956 253.052 662.821C257.202 662.605 267.413 661.835 273.799 662.125C276.871 662.264 282.75 661.746 286.358 661.834C288.448 661.886 290.55 661.61 293.004 661.168L293.167 661.139C294.011 660.985 294.47 661.164 294.775 661.054L306.594 696.879Z" fill="#EEC545"/>
<path d="M233.217 264.882C238.644 264.356 242.835 265.085 247.764 265.048C255.739 264.99 260.727 265.607 268.427 265.653C274.573 265.69 280.34 266.447 284.688 265.834C295.315 264.336 295.333 250.701 298.657 239.277C303.077 224.081 305.53 215.383 309.225 209.079C310.687 206.585 312.512 205.462 314.112 205.21C315.866 204.934 316.912 207.619 317.733 209.431C319.196 212.662 316.668 221.697 312.84 242.487C311.158 251.616 310.71 258.14 310.448 261.947L310.423 262.322C310.315 263.878 310.535 264.741 312.524 265.032C318.261 265.869 323.423 264.703 329.438 264.593C354.206 264.143 361.569 265.034 365.487 265.701C369.19 266.331 373.088 267.307 376.69 269.38C377.765 269.998 378.062 271.924 378.047 273.108C378.033 274.291 377.376 275.034 376.058 275.744C369.999 279.006 360.654 278.362 350.756 279.235C343.889 279.841 340.165 279.912 336.857 281.357C329.829 284.426 340.604 305.307 341.944 312.825C342.599 316.499 341.701 320.961 340.141 324.37C339.865 324.974 338.685 324.46 337.911 324.022C334.405 322.037 328.78 310.123 324.811 302.966C321.815 297.563 317.859 291.383 314.424 286.291C312.115 282.868 307.689 281.755 302.116 279.56C296.03 277.164 291.339 277.688 277.279 279.74C264.602 281.591 258.563 281.417 253.194 281.957C248.704 282.408 241.521 282.893 237.53 283.447L233.217 264.882Z" fill="#EEC545"/>
<path d="M323.679 700.205C322.287 688.801 316.073 682.163 312.657 660.286C310.324 645.35 308.658 635.622 307.192 631.197C305.455 625.956 304.388 621.883 300.438 606.384L300.16 605.292C296.45 590.745 289.795 564.645 284.599 532.35C279.271 499.229 275.59 460.758 273.895 437.025C272.243 413.89 272.47 405.012 272.602 399.873L272.624 399.027C272.745 394.308 272.785 392.774 270.683 386.725C264.731 369.591 258.838 355.477 254.62 344.021C251.661 335.985 247.461 323.579 244.629 313.469C241.797 303.358 240.377 295.772 230.938 255.01C224.007 225.079 213.03 178.435 204.208 140.042M312.657 660.286C317.661 660.413 328.041 663.565 332.845 660.94C341.233 656.357 331.542 649.994 331.047 649.115C330.526 648.192 331.44 647.009 332.157 646.08L332.203 646.02C333.793 643.958 337.795 642.456 341.065 642.738C343.806 642.974 347.555 648.381 354.479 660.488C356.183 663.468 357.486 666.109 359.492 669.077C361.285 671.728 364.651 671.516 366.715 671.641C369.184 671.791 371.934 668.339 374.171 666.947C376.09 665.752 379.201 666.127 381.852 665.692C384.968 665.181 387.271 664.671 390.641 664.306C393.684 663.976 396.593 663.019 399.536 662.232C402.536 661.43 406.244 659.984 408.778 658.531C412.538 656.887 415.494 655.58 418.229 654.281C419.063 653.666 419.214 653.419 418.807 651.558C416.759 645.43 413.032 632.733 414.382 631.896C416.659 630.485 418.998 630.307 420.431 630.66C426.11 632.059 429.126 637.985 431.612 643.633C433.665 648.295 436.353 656.999 437.585 661.563C438.817 666.126 438.263 666.386 434.885 667.553C431.506 668.72 425.321 670.787 420.177 672.557C411.098 675.68 406.214 677.779 403.017 679.527C400.736 680.774 396.932 682.4 392.056 684.401C381.36 688.79 374.563 691.261 373.282 691.845C372.181 692.346 364.909 695.033 354.242 698.904C347.603 701.314 340.68 701.544 336.587 702.03C333.519 702.394 326.322 700.476 323.679 700.205M323.679 700.205C324.253 704.91 324.642 708.244 324.567 710.421C324.429 714.445 320.658 716.486 319.386 717.899C318.765 718.588 317.44 718.314 316.452 717.915C312.53 716.33 309.889 706.995 304.663 690.9C297.585 669.1 292.235 652.86 289.095 646.187C284.32 636.04 286.039 628.317 283.373 609.509C281.738 597.975 275.771 578.166 273.268 567.359C270.549 555.618 270.387 552.204 268.618 542.079C267.255 534.283 266.176 520.894 265.307 511.466M265.307 511.466C264.438 502.039 264.125 496.928 261.836 485.209C259.548 473.491 255.294 455.321 252.98 443.123C251.889 437.371 251.258 433.07 250.79 429.248M265.307 511.466C262.478 514.058 256.827 520.763 253.715 518.156C252.83 517.415 256.107 509.36 247.835 508.722C243.882 508.417 239.859 510.046 237.373 509.164C234.854 508.271 230.656 498.407 223.878 498.197C219.655 498.066 213.13 499.736 212.047 502.689C211.401 504.448 210.595 506.136 210.704 507.544C210.957 510.832 212.254 515.188 215.39 517.032C219.652 519.539 225.975 521.591 224.021 523.884C223.187 524.863 221.531 525.493 219.362 526.651C212.918 530.089 209.218 534.338 204.913 533.977C202.142 533.744 200.202 531.214 196.402 529.729C194.977 529.172 192.777 529.428 190.415 530.64C189.438 531.141 188.776 531.61 189.211 533.334C190.413 538.094 192.256 542.909 190.594 544.789C189.807 545.68 187.826 547.392 185.065 547.187C181.691 546.938 178.57 545.456 173.745 542.626C167.793 539.135 162.757 536.015 159.771 536.798C157.638 537.357 155.113 538.067 155.219 539.332C155.336 540.723 155.711 542.223 156.726 543C159.207 544.9 178.246 553.843 174.07 558.995C172.388 561.071 170.872 563.927 167.485 564.011C164.794 564.078 162.195 563.184 156.219 559.777C145.156 553.467 133.875 547.344 130.575 548.245C128.593 548.786 126.795 549.307 126.051 550.252C125.659 550.749 125.402 551.43 125.369 552.059C125.337 552.688 125.484 553.271 125.824 553.812C126.524 554.924 127.938 556.204 129.76 557.335C132.883 559.273 144.92 566.875 153.632 571.354M207.328 554.559C207.35 554.547 207.371 554.536 207.392 554.525C210.064 553.095 212.823 551.01 215.193 548.866C218.161 546.179 223.901 541.982 227.239 542.544C229.796 542.975 232.446 544.306 234.834 545.877C237.27 547.481 239.841 549.618 242.614 551.112C246.519 553.215 249.667 554.446 252.248 552.975C252.852 552.63 253.46 552.13 253.489 551.537C253.546 550.366 253.313 549.077 252.517 548.089C250.744 545.889 244.043 541.101 246.625 539.4C249.411 537.565 252.275 535.506 256.497 533.27C261.117 530.823 262.7 530.27 266.715 526.758C266.192 521.453 265.725 516.001 265.307 511.466M223.463 284.152C222.327 278.246 221.316 272.715 220.592 268.18C219.621 262.097 215.637 252.661 213.268 244.106C210.9 235.552 209.414 228.367 207.307 219.211C205.2 210.054 202.516 199.144 200.453 188.166C198.39 177.189 197.029 166.476 195.029 156.43C191.193 137.161 187.379 125.154 186.712 118.933C185.327 106.039 183.598 97.6436 180.694 87.6729C177.754 77.5777 181.762 71.4956 181.992 64.5554C181.475 57.5421 180.086 51.338 182.203 41.061C177.54 26.9621 170.498 2.30091 172.636 3.01492C177.905 4.77448 178.123 11.7911 184.199 30.144C186.053 35.7475 185.751 41.0509 186.072 50.1375C186.268 55.6789 186.986 63.0826 195.77 102.782C198.105 113.332 201.015 126.147 204.208 140.042M220.592 268.18C209.994 271.076 201.285 267.899 194.795 268.82C178.831 271.088 173.29 271.498 169.401 271.518C164.666 271.543 159.021 271.671 154.586 272.11C150.613 272.504 145.933 271.416 136.729 273.268C128.317 274.96 123.634 276.073 112.265 278.856C106.096 280.365 101.504 279.509 98.1226 279.772C93.7059 280.116 80.9924 281.744 70.9701 280.492C69.6174 280.322 68.271 280.276 67.6261 277.689C63.375 260.639 61.9539 240.173 56.2746 237.407C55.4694 237.014 54.5264 236.919 53.6794 237.135C52.8324 237.351 51.9522 237.797 51.596 238.743C50.8105 240.829 49.7842 244.091 49.783 250.148C49.781 259.889 53.4162 272.444 51.7015 279.196C51.4264 280.279 51.099 281.301 49.3563 281.886C38.5543 285.514 25.8637 292.052 23.9229 288.306C20.8997 282.47 16.8335 268.89 18.0125 260.951C19.1946 252.991 19.4217 245.216 15.5017 242.186C14.82 241.659 13.883 241.375 13.0854 241.689C11.4827 242.319 9.92956 243.485 9.65901 245.241C9.05551 249.158 10.2026 253.649 7.55286 272.776C6.36809 281.328 3.69675 293.273 3.14875 299.985C2.15224 312.191 6.42328 329.325 8.09323 334.898C8.40043 336.857 9.19594 339.857 10.393 341.784C11.5901 343.711 10.8206 342.836 12.1249 342.987C13.4292 343.139 14.9463 343.028 16.0112 342.181C20.7182 338.435 25.3086 329.601 27.3216 324.218C28.9005 319.996 29.8034 315.827 29.3472 312.113C28.8617 308.162 24.3366 300.891 28.026 297.241C29.2655 296.015 30.9923 295.248 32.7918 295.295C36.6985 295.397 41.0423 294.937 45.0796 297.735C46.7376 298.884 48.3806 308.7 51.3802 322.499C53.5797 332.618 54.6244 346.898 60.3946 351.358C61.1921 351.975 62.3464 352.469 62.8254 351.861C65.3569 348.646 68.3736 342.756 68.2876 332.959C68.2401 327.538 53.6336 298.385 64.9722 296.104C66.4135 295.814 69.2186 296.339 73.0559 297.094C77.8827 298.045 82.339 299.139 88.9489 297.695C96.5269 296.039 107.412 293.594 123.528 291.208C141.472 288.55 148.243 288.188 157.61 287.553C163.957 287.123 168.237 285.142 172.529 286.435L172.709 286.489C177.186 287.837 182.41 289.411 186.902 293.457C190.44 296.646 194.883 300.411 197.393 305.245C199.961 310.193 203.153 319.284 206.461 317.574C209.514 315.996 212.801 313.142 214.032 309.222C214.653 307.244 215.015 304.918 213.666 303.351C210.706 299.909 205.074 298.007 203.228 294.342C202.263 292.427 201.245 290.265 201.796 288.557C202.058 287.747 202.699 286.998 203.535 286.735C205.17 286.221 219.307 284.14 223.463 284.152M195.029 156.43C191.852 156.794 181.841 156.929 179.918 157.482C174.196 159.13 178.844 171.587 179.331 177.902C179.559 180.869 178.098 183.242 176.201 184.838C175.294 185.602 174.063 185.681 173.079 185.461C167.112 184.126 167.139 172.324 167.516 166.591C167.98 159.533 165.132 152.416 161.314 147.969C157.513 143.542 150.216 144.314 141.906 146.541C138.648 147.415 136.262 147.812 134.501 148.687C130.504 150.672 133.517 159.799 134.704 166.386C136.295 175.22 133.194 184.666 131.226 192.162C130.901 193.4 130.542 194.348 129.76 194.631C128.978 194.914 127.719 194.487 126.743 193.835C120.58 189.718 119.941 177.349 118.786 168.184C118.064 162.454 117.153 157.876 115.386 154.066C114.667 152.516 113.312 152.3 112.135 152.269C107.222 152.138 102.468 153.39 93.0435 155.703C86.6452 157.274 82.3109 155.925 78.3635 154.697L78.216 154.651C72.6551 152.922 65.8827 155.26 61.7905 156.165C57.486 157.117 52.7444 157.74 47.8012 157.682C42.5388 157.621 37.6103 160.016 32.4777 162.298C26.7136 164.86 30.8431 173.718 31.4621 178.714C32.1978 184.651 32.3752 190.817 31.5711 195.407C31.3723 196.541 30.7103 197.471 30.0631 197.575C28.6365 196.892 23.8515 192.729 21.9424 187.824C21.8454 187.533 19.0736 179.236 14.5993 163.061C7.97969 139.13 11.6626 133.974 12.5864 126.116C13.4287 118.952 14.9659 111.906 15.7521 105.204C16.3348 100.236 16.8682 96.4017 17.3861 95.2977C19.5115 90.7673 21.7786 106.492 20.8784 116.076C20.3122 122.103 19.0541 127.474 20.0207 136.265C20.3629 139.378 21.0776 142.174 23.0055 144.28C28.7278 150.532 37.6893 143.049 42.231 141.983C47.4286 140.763 50.7969 140.702 52.5734 140C56.4484 138.469 55.4904 131.539 56.131 120.4C56.3789 116.09 56.3246 113.452 57.4093 111.802C57.944 110.989 59.0722 110.712 60.0004 111.043C65.5773 113.034 65.4889 123.46 71.5517 140.002C74.6751 148.524 85.7247 142.735 92.1404 141.756C96.935 141.024 101.314 139.878 106.651 137.763C107.914 137.263 108.207 135.83 108.432 134.595C110.035 125.804 103.076 109.47 103.59 102.905C103.771 100.585 105.808 98.7981 107.571 97.7736C108.416 97.2827 109.61 98.0101 110.539 98.9191C115.33 103.607 115.367 111.29 115.267 117.754C115.164 124.445 117.299 128.715 118.33 133.493C118.867 135.983 120.898 138.61 122.835 141.413C128.897 150.183 153.992 135.804 157.878 134.526C160.505 133.662 159.229 123.745 160.43 114.435C160.808 111.499 162.041 112.413 163.458 115.704C170.123 131.178 169.614 135.989 169.129 139.838C169.018 140.725 170.154 141.477 171.146 141.886C175.101 143.518 187.529 142.895 191.841 141.751C192.854 146.082 193.941 150.964 195.029 156.43ZM204.167 140.037C204.181 140.039 204.194 140.04 204.208 140.042M223.544 284.153C223.517 284.152 223.49 284.152 223.463 284.152M248.726 410.459C248.692 410.471 248.657 410.482 248.623 410.494M250.902 429.24C250.865 429.242 250.828 429.245 250.79 429.248M153.632 571.354L154.146 571.619M153.632 571.354C153.804 571.442 153.975 571.531 154.146 571.619M207.392 554.525L207.328 554.559M293.167 661.139C293.112 661.149 293.058 661.158 293.004 661.168C290.55 661.61 288.448 661.886 286.358 661.834C282.75 661.746 276.871 662.264 273.799 662.125C267.413 661.835 257.202 662.605 253.052 662.821C250.456 662.956 246.778 663.342 246.017 660.704C245.225 657.957 244.47 651.605 245.554 647.111C246.903 641.519 249.051 635.797 248.037 633.614C247.497 632.451 246.862 631.267 245.818 630.595C245.302 630.263 244.691 629.962 243.61 630.286C240.916 631.092 238.651 631.809 237.912 632.775C235.665 635.713 232.026 645.909 225.422 651.13C223.889 652.341 218.419 653.734 211.301 651.658C202.674 649.14 196.543 647.536 195.88 646.653C194.138 644.33 192.66 641.248 192.839 638.072C193.033 634.635 194.774 628.994 192.47 625.348C191.536 623.87 190.642 622.209 189.43 622.3C188.346 622.38 185.992 622.617 184.643 625.499C182.843 629.347 180.126 638.853 177.135 642.607C176.273 643.69 174.809 644.919 171.729 644.88C166.694 644.818 158.911 643.214 150.514 642.482C144.574 641.964 140.952 642.19 140.076 641.054C139.369 640.137 138.277 638.511 139.302 632.04C140.196 626.395 141.666 622.413 139.035 617.959C136.877 614.307 133.468 608.912 130.32 609.826C129.187 610.155 128.127 610.65 127.449 611.497C125.903 613.426 124.763 626.474 118.904 628.309C115.374 629.414 107.066 632.245 102.977 630.543C101.828 630.064 98.6475 624.983 97.3525 616.867C96.3339 610.484 97.254 605.344 95.6485 602.363C95.0702 601.289 94.1698 599.707 92.8138 600.088C89.8164 600.931 86.9034 602.265 83.484 606.108C78.5717 611.628 76.5501 616.33 73.1544 618.995C69.682 621.72 65.9682 623.823 62.9596 623.494L62.9033 623.488C61.6669 623.353 60.1072 623.183 59.6569 621.822C58.3538 617.885 63.6784 606.929 61.5891 600.013C60.8268 597.49 60.0067 595.496 58.9563 595.126C58.4067 594.932 57.6977 594.778 56.2058 595.333C49.5834 597.796 47.9265 599.854 43.0404 604.579C37.0662 610.356 33.9046 613.567 34.6869 615.95C35.5902 618.701 37.0048 621.212 39.9599 623.052C42.7769 624.807 51.4505 628.408 62.5862 633.397C69.6048 636.541 73.8462 639.794 82.3854 643.345C86.0156 644.855 94.8785 645.897 104.988 649.346C110.282 651.152 113.02 651.905 115.678 653.114C117.879 654.115 122.353 657.616 134.081 659.379C139.117 660.136 146.706 660.856 153.842 662.163C160.978 663.47 167.465 665.309 172.552 667.174C177.639 669.039 181.199 670.91 184.617 672.537C191.02 675.587 196.227 677.572 202.527 679.974L202.528 679.975L202.892 680.114C207.353 681.815 214.025 684.485 219.22 686.375C224.415 688.264 228.025 689.34 231.617 690.062C235.209 690.784 238.678 691.142 245.391 692.336C252.104 693.529 261.768 695.498 268.552 696.639C275.336 697.779 279.134 698.281 283.601 697.923C293.089 697.164 303.806 696.724 306.594 696.879L294.775 661.054C294.47 661.164 294.011 660.985 293.167 661.139ZM293.004 661.168L293.167 661.139M154.146 571.619C160.777 575.028 167.117 578.289 171.254 579.253C176.424 580.458 177.939 580.762 178.504 580.734C181.032 581.346 185.617 583.708 185.782 581.369C185.847 580.436 185.336 579.182 184.521 578.012C182.95 575.757 179.33 571.795 181.98 570.581C184.666 569.351 189.784 570.229 194.696 571.319C199.826 572.456 202.555 574.035 205.728 574.815C207.165 575.169 210.071 574.871 213.018 573.152C214.148 572.493 214.51 571.918 214.456 571.177C214.336 569.548 214.839 567.144 213.174 564.392C211.27 561.245 206.426 558.557 206.288 555.607C206.265 555.126 206.772 554.856 207.328 554.559M250.79 429.248C250.266 424.964 249.948 421.282 249.419 416.835C249.16 414.662 248.894 412.549 248.623 410.494M250.79 429.248C246.724 429.54 237.284 429.426 232.621 430.474C228.009 431.51 223.63 434.496 218.842 432.516C217.124 431.806 215.629 430.434 214.335 428.74C213.302 427.387 208.958 414.836 202.56 396.588C199.537 387.966 198.63 384.616 197.2 384.634C195.668 384.654 193.069 385.898 189.079 384.467C187.23 383.803 185.363 383.017 184.605 381.26C183.712 379.189 182.529 377.038 183.173 375.513C184.356 372.709 189.874 370.902 190.1 367.319C190.193 365.846 171.434 339.874 181.224 331.843C182.441 330.844 184.122 330.174 185.886 330.612C187.538 331.023 189.477 331.775 191.248 333.495C193.223 335.412 196.435 339.815 197.173 345.74C197.822 350.943 197.413 355.51 198.893 358.93C199.623 360.617 200.719 362.307 202.478 362.458C205.881 362.75 213.089 358.021 215.709 361.258C218.202 364.337 220.009 369.561 219.837 372.696C219.795 373.458 219.702 374.209 218.454 374.989C217.205 375.769 214.871 376.554 213.475 377.344C212.078 378.134 211.374 378.978 212.1 381.111C215.591 391.355 216.881 395.311 219.249 399.952C221.647 404.652 224.241 411.978 227.254 415.358C227.811 415.983 228.536 416.711 229.66 416.452C234.728 415.286 243.444 412.226 248.623 410.494M248.623 410.494C246.462 394.144 243.962 381.469 242.183 371.393C240.78 363.443 238.904 350.979 236.81 341.228C233.247 324.631 229.423 313.993 228.066 307.277L227.891 306.413C226.43 299.186 224.854 291.387 223.463 284.152M204.208 140.042C205.203 144.372 206.225 148.807 207.266 153.312C212.262 152.838 232.369 149.853 240.494 148.712C246.094 147.926 250.487 147.632 255.034 148.897C260.538 150.429 266.266 149.567 271.428 151.172C276.793 152.841 288.609 155.137 299.084 154.472C305.012 154.096 312.942 151.67 330.416 147.642C339.222 145.612 345.298 144.362 349.903 146.142C354.026 147.735 357.755 151.391 361.187 157.393C364.229 162.711 365.607 174.568 371.528 176.89C372.495 177.269 373.81 177.3 374.811 176.355C377.05 174.24 363.898 155.882 371.247 145.942C372.122 144.758 374.01 143.741 375.487 143.868C380.781 144.327 389.855 147.35 398.923 145.267C400.594 144.883 401.715 144.236 401.784 142.95C401.946 139.943 401.127 135.401 401.244 129.875C401.361 124.373 402.779 118.337 399.303 112.862C396.325 108.169 391.997 102.894 387.411 102.822C386.289 102.805 384.677 103.122 384.809 104.027C385.551 109.096 390.035 117.647 389.814 124.579C389.778 125.72 389.345 126.764 388.424 127.085C386.494 127.757 383.773 128.837 379.546 129.545C368.763 131.349 363.203 131.898 358.375 133.137C350.54 135.148 341.445 140.537 334.506 137.292C330.305 135.328 324.913 133.583 322.206 126.919C316.057 111.783 310.489 93.6837 300.817 89.0536C299.816 88.5741 297.598 87.4423 297.593 88.6114C297.541 100.838 306.423 124.657 304.739 131.656C304.363 133.221 303.727 134.274 301.852 134.977C297.25 136.704 292.691 138.033 289.553 138.795C283.456 140.274 275.591 143.615 272.264 140.974C270.584 139.64 268.569 136.789 267.952 132.942C267.192 128.202 268.336 121.083 265.945 113.898C263.278 105.882 259.506 95.5985 257.717 98.8338C257.047 100.046 255.675 103.325 256.596 107.628C257.792 113.217 259.992 119.141 258.305 123.702C256.541 128.47 248.493 129.684 248.522 133.929C248.528 134.834 249.351 135.927 249.186 136.566C249.022 137.205 247.905 137.398 246.798 137.544L246.448 137.59C241.345 138.262 234.31 139.188 221.359 139.697C213.042 140.023 208.478 140.521 204.208 140.042ZM233.217 264.882C238.644 264.356 242.835 265.085 247.764 265.048C255.739 264.99 260.727 265.607 268.427 265.653C274.573 265.69 280.34 266.447 284.688 265.834C295.315 264.336 295.333 250.701 298.657 239.277C303.077 224.081 305.53 215.383 309.225 209.079C310.687 206.585 312.512 205.462 314.112 205.21C315.866 204.934 316.912 207.619 317.733 209.431C319.196 212.662 316.668 221.697 312.84 242.487C311.158 251.616 310.71 258.14 310.448 261.947L310.423 262.322C310.315 263.878 310.535 264.741 312.524 265.032C318.261 265.869 323.423 264.703 329.438 264.593C354.206 264.143 361.569 265.034 365.487 265.701C369.19 266.331 373.088 267.307 376.69 269.38C377.765 269.998 378.062 271.924 378.047 273.108C378.033 274.291 377.376 275.034 376.058 275.744C369.999 279.006 360.654 278.362 350.756 279.235C343.889 279.841 340.165 279.912 336.857 281.357C329.829 284.426 340.604 305.307 341.944 312.825C342.599 316.499 341.701 320.961 340.141 324.37C339.865 324.974 338.685 324.46 337.911 324.022C334.405 322.037 328.78 310.123 324.811 302.966C321.815 297.563 317.859 291.383 314.424 286.291C312.115 282.868 307.689 281.755 302.116 279.56C296.03 277.164 291.339 277.688 277.279 279.74C264.602 281.591 258.563 281.417 253.194 281.957C248.704 282.408 241.521 282.893 237.53 283.447L233.217 264.882ZM280.412 502.868C285.781 499.083 291.58 495.44 292.521 494.372C292.959 493.874 292.771 493.108 292.505 492.441C290.532 487.509 283.503 482.533 281.525 480.445C280.641 479.512 279.446 477.429 278.238 474.968C277.779 474.032 278.27 473.48 278.755 473.122C280.748 471.647 286.705 473.852 290.975 475.594C293.039 476.436 294.661 477.486 295.811 478.01C296.988 478.546 299.026 478.059 301.361 477.132C305.825 475.359 308.125 470.656 309.874 468.674C314.04 463.954 294.21 456.999 290.927 453.775C288.315 451.209 287.77 448.92 287.523 447.456C287.412 446.8 287.856 446.279 288.313 445.88C289.247 445.062 290.598 444.713 291.888 444.397C294.769 443.69 301.625 447.607 315.81 452.883C325.125 456.348 330.663 457.526 335.195 459.036C344.207 462.038 352.556 468.882 356.095 472.342C357.735 473.947 358.753 476.298 358.862 478.662C358.909 479.679 357.239 480.075 356.085 480.272C349.966 481.315 342.495 477.31 334.136 476.614C329.603 476.236 326.94 477.343 321.804 478.918C317.867 480.125 315.155 484.767 314.504 487.153C314.346 487.732 314.751 488.315 315.142 488.779C316.736 490.669 320.036 490.777 322.77 490.6C324.162 490.509 325.262 488.769 326.704 486.822C327.066 486.334 327.574 485.969 328.178 485.873C329.527 485.658 331.325 487.224 333.035 488.958C334.195 490.134 334.518 491.396 334.589 492.599C334.625 493.206 334.311 493.809 333.963 494.353C331.852 497.648 325.332 498.411 322.888 499.691C319.802 501.309 316.503 502.842 313.508 502.834C310.391 502.825 308.446 498.841 307.15 496.617L307.145 496.607C306.833 496.071 306.534 495.558 305.775 495.465C301.276 494.917 297.08 498.671 294.947 500.943C294.497 501.422 294.052 501.907 293.909 502.439C293.766 502.971 293.952 503.548 294.328 503.988C296.046 506.002 299.416 507.587 302.484 509.656C303.963 510.654 305.051 512.151 305.782 513.707C306.116 514.42 306.046 515.11 305.833 515.721C304.839 518.577 301.621 519.642 300.378 519.897C297.172 520.556 292.807 515.834 290.318 513.799C289.315 512.979 283.98 516.166 282.212 516.428L280.412 502.868Z" stroke="black" stroke-width="6" stroke-linecap="round"/>
</svg>
