<svg width="417" height="627" viewBox="0 0 417 627" fill="none" xmlns="http://www.w3.org/2000/svg">
<path d="M148.315 3.01492C146.176 2.30091 153.218 26.9621 157.882 41.061C155.765 51.338 157.154 57.5421 157.671 64.5554C157.441 71.4956 153.432 77.5778 156.373 87.6729C159.276 97.6436 161.006 106.039 162.39 118.933C163.058 125.154 166.872 137.161 170.708 156.43C172.708 166.476 174.069 177.189 176.132 188.166C178.195 199.144 180.878 210.054 182.985 219.211C185.093 228.367 186.579 235.552 188.947 244.106C191.316 252.661 195.3 262.097 196.271 268.18C196.994 272.715 198.006 278.246 199.141 284.152C200.532 291.387 202.109 299.186 203.57 306.413L203.744 307.276C205.102 313.993 208.926 324.631 212.489 341.228C214.583 350.979 216.459 363.443 217.862 371.393C219.641 381.469 222.141 394.144 224.301 410.494C224.573 412.549 224.839 414.662 225.098 416.835C225.627 421.282 225.945 424.964 226.469 429.248C226.936 433.07 227.567 437.371 228.659 443.123C230.972 455.321 235.227 473.491 237.515 485.209C239.803 496.928 240.117 502.039 240.986 511.466C241.855 520.894 242.934 534.283 244.296 542.079C246.066 552.204 246.228 555.618 248.947 567.359C251.45 578.166 257.417 597.975 259.052 609.509C261.718 628.317 259.999 636.04 264.773 646.187C267.913 652.86 273.263 669.1 280.342 690.9C285.568 706.995 288.209 716.33 292.131 717.915C293.118 718.314 294.444 718.588 295.064 717.899C296.337 716.486 300.107 714.445 300.246 710.421C300.321 708.244 299.932 704.91 299.358 700.205C297.965 688.801 291.752 682.163 288.335 660.286C286.003 645.35 284.337 635.622 282.871 631.197C281.134 625.956 280.067 621.883 276.117 606.384L275.839 605.292C272.129 590.745 265.473 564.645 260.278 532.35C254.95 499.229 251.269 460.758 249.574 437.025C247.922 413.89 248.149 405.012 248.281 399.873L248.302 399.027C248.424 394.308 248.463 392.774 246.362 386.725C240.41 369.591 234.517 355.477 230.299 344.021C227.339 335.985 223.14 323.579 220.308 313.469C217.476 303.358 216.056 295.772 206.616 255.01C199.686 225.079 188.709 178.435 179.887 140.042C176.694 126.147 173.783 113.332 171.449 102.782C162.665 63.0826 161.947 55.6789 161.751 50.1375C161.43 41.0509 161.732 35.7475 159.877 30.144C153.802 11.7911 153.584 4.77448 148.315 3.01492Z" fill="#EEC545"/>
<path d="M242.394 526.758C241.87 521.453 241.404 516.001 240.986 511.466C238.157 514.058 232.505 520.763 229.394 518.156C228.509 517.415 231.786 509.36 223.514 508.722C219.56 508.417 215.538 510.046 213.052 509.164C210.532 508.271 206.335 498.407 199.557 498.197C195.334 498.066 188.809 499.736 187.725 502.689C187.08 504.448 186.274 506.136 186.383 507.545C186.636 510.832 187.933 515.188 191.068 517.032C195.331 519.539 201.653 521.591 199.7 523.884C198.866 524.863 197.21 525.493 195.04 526.651C188.596 530.089 184.896 534.338 180.592 533.977C177.82 533.744 175.881 531.214 172.081 529.729C170.656 529.172 168.456 529.428 166.093 530.64C165.117 531.141 164.455 531.61 164.89 533.334C166.092 538.094 167.935 542.909 166.272 544.789C165.485 545.68 163.504 547.392 160.743 547.187C157.369 546.938 154.249 545.456 149.423 542.626C143.472 539.135 138.435 536.015 135.449 536.798C133.317 537.357 130.792 538.067 130.898 539.332C131.015 540.723 131.39 542.223 132.405 543C134.886 544.9 153.924 553.843 149.748 558.995C148.067 561.071 146.551 563.927 143.163 564.011C140.473 564.078 137.873 563.184 131.898 559.777C120.834 553.467 109.554 547.344 106.253 548.245C104.272 548.786 102.473 549.307 101.73 550.252C101.338 550.749 101.08 551.43 101.048 552.059C101.016 552.688 101.163 553.271 101.503 553.812C102.203 554.924 103.617 556.204 105.439 557.335C108.561 559.273 120.599 566.875 129.311 571.354L129.825 571.619C136.456 575.028 142.796 578.289 146.933 579.253C152.102 580.458 153.618 580.762 154.183 580.734C156.711 581.346 161.296 583.708 161.461 581.369C161.526 580.436 161.015 579.182 160.2 578.012C158.629 575.757 155.008 571.795 157.659 570.581C160.344 569.351 165.462 570.229 170.375 571.319C175.505 572.456 178.234 574.035 181.407 574.815C182.844 575.169 185.75 574.871 188.697 573.152C189.827 572.493 190.189 571.918 190.134 571.177C190.015 569.548 190.517 567.144 188.853 564.392C186.948 561.245 182.105 558.557 181.967 555.607C181.944 555.126 182.451 554.856 183.007 554.559L183.071 554.525C185.743 553.095 188.502 551.01 190.871 548.866C193.84 546.179 199.58 541.982 202.917 542.544C205.474 542.975 208.124 544.306 210.512 545.877C212.949 547.481 215.52 549.618 218.293 551.112C222.198 553.215 225.346 554.446 227.927 552.975C228.531 552.63 229.139 552.13 229.167 551.537C229.224 550.366 228.992 549.077 228.196 548.089C226.423 545.889 219.722 541.101 222.304 539.4C225.09 537.565 227.954 535.506 232.176 533.27C236.795 530.823 238.379 530.27 242.394 526.758Z" fill="#EEC545"/>
<path d="M256.091 502.868C261.46 499.083 267.259 495.44 268.199 494.372C268.638 493.874 268.45 493.108 268.183 492.441C266.211 487.509 259.182 482.533 257.204 480.445C256.32 479.512 255.125 477.429 253.917 474.968C253.457 474.032 253.949 473.48 254.433 473.122C256.427 471.647 262.384 473.852 266.654 475.594C268.718 476.436 270.34 477.486 271.49 478.01C272.666 478.546 274.705 478.059 277.039 477.132C281.504 475.359 283.803 470.656 285.553 468.674C289.719 463.954 269.888 456.999 266.606 453.775C263.994 451.209 263.449 448.92 263.202 447.456C263.091 446.8 263.535 446.279 263.991 445.88C264.925 445.062 266.277 444.713 267.567 444.397C270.448 443.69 277.304 447.607 291.489 452.883C300.804 456.348 306.342 457.526 310.874 459.036C319.886 462.038 328.235 468.882 331.774 472.342C333.414 473.947 334.432 476.298 334.541 478.662C334.588 479.679 332.917 480.075 331.764 480.272C325.644 481.315 318.173 477.31 309.815 476.614C305.281 476.236 302.619 477.343 297.483 478.918C293.546 480.125 290.834 484.767 290.183 487.153C290.025 487.732 290.43 488.315 290.821 488.779C292.415 490.669 295.715 490.777 298.448 490.6C299.841 490.509 300.941 488.769 302.382 486.822C302.744 486.334 303.253 485.969 303.857 485.873C305.206 485.658 307.004 487.224 308.714 488.958C309.874 490.134 310.197 491.396 310.268 492.599C310.304 493.206 309.99 493.809 309.641 494.353C307.531 497.648 301.01 498.411 298.567 499.691C295.481 501.309 292.181 502.842 289.187 502.834C286.07 502.825 284.125 498.841 282.829 496.617L282.823 496.607C282.511 496.071 282.212 495.558 281.453 495.465C276.954 494.917 272.758 498.671 270.625 500.943C270.176 501.422 269.731 501.907 269.588 502.439C269.445 502.971 269.631 503.548 270.006 503.988C271.725 506.002 275.095 507.587 278.162 509.656C279.641 510.654 280.729 512.151 281.46 513.707C281.795 514.42 281.724 515.11 281.512 515.721C280.518 518.577 277.3 519.642 276.057 519.897C272.851 520.556 268.485 515.834 265.997 513.799C264.994 512.979 259.658 516.166 257.891 516.428L256.091 502.868Z" fill="#EEC545"/>
<path d="M226.469 429.248C225.945 424.964 225.627 421.282 225.098 416.835C224.839 414.662 224.573 412.549 224.301 410.494C219.122 412.226 210.407 415.286 205.339 416.452C204.215 416.711 203.489 415.983 202.933 415.358C199.92 411.978 197.326 404.652 194.928 399.952C192.56 395.311 191.269 391.355 187.779 381.111C187.052 378.978 187.756 378.134 189.153 377.344C190.55 376.554 192.884 375.769 194.132 374.989C195.381 374.209 195.473 373.458 195.515 372.696C195.687 369.561 193.881 364.337 191.388 361.258C188.768 358.021 181.56 362.75 178.157 362.458C176.398 362.307 175.301 360.617 174.572 358.93C173.092 355.51 173.501 350.943 172.852 345.74C172.114 339.815 168.902 335.412 166.927 333.495C165.155 331.775 163.217 331.023 161.565 330.612C159.8 330.174 158.12 330.844 156.903 331.843C147.112 339.874 165.872 365.846 165.779 367.319C165.553 370.902 160.035 372.709 158.851 375.513C158.208 377.038 159.391 379.189 160.284 381.26C161.041 383.017 162.908 383.803 164.758 384.467C168.748 385.898 171.346 384.654 172.878 384.634C174.309 384.616 175.216 387.966 178.239 396.588C184.636 414.836 188.981 427.387 190.014 428.74C191.307 430.434 192.803 431.806 194.521 432.516C199.309 434.496 203.688 431.51 208.299 430.474C212.963 429.426 222.403 429.54 226.469 429.248Z" fill="#EEC545"/>
<path d="M199.141 284.152C198.006 278.246 196.994 272.715 196.271 268.18C185.673 271.076 176.964 267.899 170.474 268.82C154.51 271.088 148.969 271.498 145.08 271.518C140.345 271.543 134.7 271.671 130.265 272.11C126.292 272.504 121.611 271.416 112.408 273.268C103.996 274.96 99.3125 276.073 87.9438 278.856C81.7747 280.365 77.1823 279.509 73.8013 279.772C69.3846 280.116 56.6711 281.744 46.6488 280.492C45.2961 280.322 43.9497 280.276 43.3048 277.689C39.0537 260.639 37.6327 240.173 31.9534 237.407C31.1481 237.014 30.2051 236.919 29.3581 237.135C28.5112 237.351 27.6309 237.797 27.2747 238.743C26.4892 240.829 25.4629 244.091 25.4617 250.148C25.4597 259.889 29.0949 272.444 27.3802 279.196C27.1051 280.279 26.7777 281.301 25.035 281.886C14.233 285.514 1.54241 292.052 -0.39843 288.306C-3.42162 282.47 -7.4878 268.89 -6.30879 260.951C-5.12665 252.991 -4.89961 245.216 -8.81958 242.186C-9.50129 241.659 -10.4383 241.375 -11.2359 241.689C-12.8386 242.319 -14.3917 243.485 -14.6623 245.241C-15.2658 249.158 -14.1187 253.649 -16.7684 272.776C-17.9532 281.328 -20.6245 293.273 -21.1725 299.985C-22.1691 312.191 -17.898 329.325 -16.2281 334.898C-15.9209 336.857 -15.1254 339.857 -13.9283 341.784C-12.7312 343.711 -13.5007 342.836 -12.1964 342.987C-10.8921 343.139 -9.37502 343.028 -8.31006 342.181C-3.60312 338.435 0.987333 329.601 3.00034 324.218C4.57925 319.996 5.48216 315.827 5.0259 312.113C4.54044 308.162 0.0153548 300.891 3.70474 297.241C4.94419 296.015 6.671 295.248 8.47046 295.295C12.3772 295.397 16.721 294.937 20.7584 297.735C22.4163 298.884 24.0593 308.7 27.059 322.499C29.2584 332.618 30.3031 346.898 36.0733 351.358C36.8708 351.975 38.0251 352.469 38.5041 351.861C41.0356 348.646 44.0523 342.756 43.9664 332.959C43.9188 327.538 29.3123 298.385 40.6509 296.104C42.0922 295.814 44.8973 296.339 48.7346 297.094C53.5614 298.045 58.0178 299.139 64.6276 297.695C72.2056 296.039 83.0911 293.594 99.2068 291.208C117.15 288.55 123.921 288.188 133.288 287.553C139.636 287.123 143.916 285.142 148.208 286.435L148.387 286.489C152.864 287.837 158.089 289.411 162.58 293.457C166.119 296.646 170.562 300.411 173.071 305.245C175.64 310.193 178.831 319.284 182.14 317.574C185.192 315.996 188.48 313.142 189.71 309.222C190.332 307.244 190.694 304.918 189.345 303.351C186.385 299.909 180.753 298.007 178.907 294.342C177.942 292.427 176.923 290.265 177.475 288.557C177.737 287.747 178.378 286.998 179.213 286.735C180.849 286.221 194.986 284.14 199.141 284.152Z" fill="#EEC545"/>
<path d="M179.887 140.042C180.882 144.372 181.904 148.807 182.945 153.312C187.941 152.838 208.048 149.853 216.173 148.712C221.773 147.926 226.165 147.632 230.713 148.897C236.217 150.429 241.945 149.567 247.107 151.172C252.471 152.841 264.288 155.137 274.762 154.472C280.691 154.096 288.621 151.67 306.095 147.642C314.901 145.612 320.977 144.362 325.582 146.142C329.705 147.735 333.433 151.391 336.866 157.393C339.907 162.711 341.286 174.568 347.207 176.89C348.173 177.269 349.489 177.3 350.49 176.355C352.728 174.24 339.577 155.882 346.926 145.942C347.801 144.758 349.689 143.741 351.166 143.868C356.46 144.327 365.533 147.35 374.602 145.267C376.273 144.883 377.394 144.236 377.463 142.95C377.624 139.943 376.806 135.401 376.923 129.875C377.04 124.373 378.457 118.337 374.982 112.862C372.004 108.169 367.676 102.894 363.09 102.822C361.968 102.805 360.356 103.122 360.488 104.027C361.23 109.096 365.714 117.647 365.493 124.579C365.457 125.72 365.023 126.764 364.102 127.085C362.172 127.757 359.452 128.837 355.225 129.545C344.442 131.349 338.882 131.898 334.053 133.137C326.218 135.148 317.124 140.537 310.185 137.292C305.983 135.328 300.591 133.583 297.884 126.919C291.736 111.783 286.168 93.6837 276.496 89.0536C275.495 88.5741 273.277 87.4423 273.272 88.6114C273.219 100.838 282.101 124.657 280.418 131.656C280.041 133.221 279.406 134.274 277.531 134.977C272.929 136.704 268.37 138.033 265.231 138.795C259.135 140.274 251.269 143.615 247.943 140.974C246.263 139.64 244.247 136.789 243.63 132.942C242.871 128.202 244.015 121.083 241.624 113.898C238.956 105.882 235.185 95.5985 233.396 98.8338C232.725 100.046 231.353 103.325 232.275 107.628C233.471 113.217 235.67 119.141 233.984 123.702C232.22 128.47 224.172 129.684 224.2 133.929C224.206 134.834 225.029 135.927 224.865 136.566C224.7 137.205 223.584 137.398 222.477 137.544L222.127 137.59C217.024 138.262 209.989 139.188 197.038 139.697C188.721 140.023 184.157 140.521 179.887 140.042Z" fill="#EEC545"/>
<path d="M170.708 156.43C169.62 150.964 168.533 146.082 167.52 141.751C163.208 142.895 150.78 143.518 146.825 141.886C145.833 141.477 144.696 140.725 144.808 139.838C145.293 135.989 145.802 131.178 139.137 115.704C137.72 112.413 136.487 111.499 136.108 114.435C134.908 123.745 136.183 133.662 133.557 134.526C129.671 135.804 104.575 150.183 98.5139 141.413C96.5766 138.61 94.546 135.983 94.0086 133.493C92.9775 128.715 90.8431 124.445 90.9461 117.754C91.0456 111.29 91.0091 103.607 86.2178 98.9191C85.2887 98.0101 84.0949 97.2827 83.2498 97.7736C81.4864 98.7981 79.4498 100.585 79.2684 102.905C78.7551 109.47 85.7137 125.804 84.1111 134.595C83.8858 135.83 83.5924 137.263 82.3299 137.763C76.9923 139.878 72.6137 141.024 67.8192 141.756C61.4034 142.735 50.3538 148.524 47.2304 140.002C41.1676 123.46 41.256 113.034 35.6791 111.043C34.7509 110.712 33.6227 110.989 33.088 111.802C32.0033 113.452 32.0576 116.09 31.8097 120.4C31.1691 131.539 32.1271 138.469 28.2521 140C26.4756 140.702 23.1073 140.763 17.9097 141.983C13.368 143.049 4.4065 150.532 -1.31583 144.28C-3.24367 142.174 -3.95838 139.378 -4.30062 136.265C-5.26722 127.474 -4.00908 122.103 -3.44292 116.076C-2.54265 106.492 -4.80977 90.7673 -6.93515 95.2977C-7.45309 96.4017 -7.98646 100.236 -8.56918 105.204C-9.35536 111.906 -10.8925 118.952 -11.7349 126.116C-12.6587 133.974 -16.3416 139.13 -9.72198 163.061C-5.24764 179.236 -2.47585 187.533 -2.37889 187.824C-0.469813 192.729 4.31522 196.892 5.74177 197.575C6.38898 197.471 7.05106 196.541 7.24979 195.407C8.05394 190.817 7.8765 184.651 7.14085 178.714C6.52183 173.718 2.39227 164.86 8.15641 162.298C13.2891 160.016 18.2175 157.621 23.4799 157.682C28.4231 157.74 33.1647 157.117 37.4692 156.165C41.5614 155.26 48.3338 152.922 53.8947 154.651L54.0422 154.697C57.9896 155.925 62.3239 157.274 68.7222 155.703C78.1471 153.39 82.9006 152.138 87.8137 152.269C88.9903 152.3 90.3454 152.516 91.0644 154.066C92.8318 157.876 93.7431 162.454 94.465 168.184C95.6199 177.349 96.2589 189.718 102.422 193.835C103.398 194.487 104.657 194.914 105.439 194.631C106.221 194.348 106.579 193.4 106.904 192.162C108.872 184.666 111.974 175.22 110.382 166.386C109.195 159.799 106.183 150.672 110.18 148.687C111.941 147.812 114.327 147.415 117.585 146.541C125.895 144.314 133.192 143.542 136.993 147.969C140.81 152.416 143.659 159.533 143.195 166.591C142.817 172.324 142.791 184.126 148.757 185.461C149.742 185.681 150.972 185.602 151.879 184.838C153.776 183.242 155.238 180.869 155.01 177.902C154.523 171.587 149.875 159.13 155.597 157.482C157.52 156.929 167.531 156.794 170.708 156.43Z" fill="#EEC545"/>
<path d="M288.335 660.286C291.752 682.163 297.965 688.801 299.358 700.205C302 700.476 309.198 702.394 312.266 702.03C316.358 701.544 323.282 701.314 329.92 698.904C340.588 695.033 347.86 692.346 348.961 691.845C350.242 691.261 357.039 688.79 367.735 684.401C372.611 682.4 376.415 680.774 378.696 679.527C381.893 677.779 386.776 675.68 395.855 672.557C400.999 670.787 407.185 668.72 410.563 667.553C413.942 666.386 414.496 666.126 413.264 661.563C412.032 656.999 409.344 648.295 407.291 643.633C404.805 637.985 401.789 632.059 396.109 630.66C394.677 630.307 392.337 630.485 390.061 631.896C388.71 632.733 392.438 645.43 394.485 651.558C394.892 653.419 394.742 653.666 393.908 654.281C391.172 655.58 388.216 656.887 384.457 658.532C381.922 659.984 378.214 661.43 375.215 662.232C372.272 663.019 369.362 663.976 366.32 664.306C362.95 664.671 360.647 665.181 357.531 665.692C354.88 666.127 351.768 665.752 349.85 666.947C347.613 668.339 344.863 671.791 342.394 671.641C340.33 671.516 336.964 671.728 335.171 669.077C333.164 666.109 331.862 663.468 330.158 660.488C323.234 648.381 319.485 642.974 316.743 642.738C313.474 642.456 309.472 643.958 307.882 646.02L307.836 646.08C307.118 647.009 306.205 648.192 306.725 649.115C307.221 649.994 316.911 656.357 308.524 660.94C303.719 663.565 293.34 660.413 288.335 660.286Z" fill="#EEC545"/>
<path d="M282.273 696.879C279.485 696.724 268.767 697.164 259.279 697.923C254.812 698.281 251.015 697.779 244.231 696.639C237.447 695.498 227.783 693.529 221.07 692.336C214.357 691.142 210.888 690.784 207.296 690.062C203.704 689.34 200.094 688.264 194.898 686.375C189.703 684.485 183.032 681.815 178.571 680.113L178.207 679.975L178.206 679.974C171.905 677.572 166.699 675.587 160.296 672.537C156.878 670.91 153.317 669.039 148.231 667.174C143.144 665.309 136.657 663.47 129.521 662.163C122.384 660.856 114.796 660.136 109.76 659.379C98.0318 657.616 93.5578 654.115 91.3565 653.114C88.6989 651.905 85.9607 651.152 80.6663 649.346C70.5572 645.897 61.6944 644.855 58.0641 643.345C49.5249 639.794 45.2836 636.541 38.2649 633.397C27.1292 628.408 18.4557 624.807 15.6386 623.052C12.6835 621.212 11.2689 618.702 10.3656 615.95C9.58327 613.567 12.7449 610.356 18.7192 604.579C23.6052 599.854 25.2621 597.796 31.8845 595.333C33.3764 594.778 34.0854 594.932 34.635 595.126C35.6854 595.496 36.5055 597.49 37.2678 600.013C39.3571 606.929 34.0325 617.885 35.3356 621.822C35.7859 623.183 37.3456 623.353 38.582 623.488L38.6383 623.494C41.6469 623.823 45.3607 621.72 48.8331 618.995C52.2288 616.33 54.2504 611.628 59.1627 606.108C62.5821 602.265 65.4951 600.931 68.4925 600.088C69.8485 599.707 70.7489 601.289 71.3272 602.363C72.9327 605.344 72.0126 610.484 73.0312 616.867C74.3262 624.983 77.5067 630.064 78.6556 630.543C82.7447 632.245 91.0529 629.414 94.5823 628.309C100.441 626.474 101.582 613.426 103.127 611.497C103.806 610.65 104.865 610.155 105.999 609.826C109.147 608.912 112.556 614.307 114.714 617.959C117.345 622.413 115.875 626.395 114.981 632.04C113.956 638.511 115.048 640.137 115.755 641.054C116.631 642.19 120.253 641.964 126.193 642.482C134.59 643.214 142.373 644.818 147.407 644.88C150.488 644.919 151.951 643.69 152.814 642.607C155.805 638.853 158.522 629.347 160.322 625.499C161.671 622.617 164.025 622.38 165.109 622.3C166.321 622.209 167.214 623.87 168.149 625.348C170.453 628.994 168.712 634.635 168.518 638.072C168.339 641.248 169.816 644.33 171.559 646.653C172.222 647.536 178.352 649.14 186.98 651.658C194.098 653.734 199.568 652.341 201.101 651.13C207.705 645.909 211.344 635.713 213.591 632.775C214.329 631.809 216.595 631.092 219.289 630.286C220.37 629.962 220.981 630.263 221.496 630.595C222.541 631.267 223.175 632.451 223.716 633.614C224.73 635.797 222.581 641.519 221.233 647.111C220.149 651.605 220.904 657.957 221.696 660.704C222.456 663.342 226.134 662.956 228.731 662.821C232.881 662.605 243.092 661.835 249.478 662.125C252.55 662.264 258.429 661.746 262.037 661.834C264.126 661.886 266.229 661.61 268.683 661.168L268.845 661.139C269.69 660.985 270.149 661.164 270.454 661.054L282.273 696.879Z" fill="#EEC545"/>
<path d="M208.896 264.882C214.323 264.356 218.513 265.085 223.443 265.049C231.417 264.99 236.406 265.607 244.106 265.653C250.252 265.69 256.019 266.447 260.367 265.834C270.994 264.336 271.012 250.701 274.335 239.277C278.756 224.081 281.209 215.383 284.904 209.079C286.366 206.585 288.191 205.462 289.791 205.21C291.544 204.934 292.591 207.619 293.411 209.431C294.875 212.662 292.347 221.697 288.518 242.487C286.837 251.616 286.389 258.14 286.127 261.947L286.101 262.322C285.994 263.878 286.213 264.741 288.203 265.032C293.94 265.869 299.102 264.703 305.117 264.593C329.885 264.143 337.248 265.034 341.165 265.701C344.869 266.331 348.767 267.307 352.369 269.38C353.444 269.998 353.74 271.924 353.726 273.108C353.712 274.291 353.055 275.034 351.736 275.744C345.677 279.006 336.332 278.362 326.435 279.235C319.568 279.841 315.844 279.912 312.536 281.357C305.507 284.426 316.283 305.307 317.623 312.825C318.278 316.499 317.38 320.961 315.82 324.37C315.544 324.974 314.364 324.46 313.59 324.022C310.083 322.037 304.459 310.123 300.49 302.966C297.493 297.563 293.538 291.383 290.102 286.291C287.794 282.868 283.368 281.755 277.794 279.56C271.709 277.164 267.018 277.688 252.957 279.74C240.281 281.591 234.241 281.417 228.872 281.957C224.383 282.408 217.2 282.893 213.209 283.447L208.896 264.882Z" fill="#EEC545"/>
<path d="M299.358 700.205C297.965 688.801 291.752 682.163 288.335 660.286C286.003 645.35 284.337 635.622 282.871 631.197C281.134 625.956 280.067 621.883 276.117 606.384L275.839 605.292C272.129 590.745 265.473 564.645 260.278 532.35C254.95 499.229 251.269 460.758 249.574 437.025C247.922 413.89 248.149 405.012 248.281 399.873L248.302 399.027C248.424 394.308 248.463 392.774 246.362 386.725C240.41 369.591 234.517 355.477 230.299 344.021C227.339 335.985 223.14 323.579 220.308 313.469C217.476 303.358 216.056 295.772 206.616 255.01C199.686 225.079 188.709 178.435 179.887 140.042M288.335 660.286C293.34 660.413 303.719 663.565 308.524 660.94C316.911 656.357 307.221 649.994 306.725 649.115C306.205 648.192 307.118 647.009 307.836 646.08L307.882 646.02C309.472 643.958 313.474 642.456 316.743 642.738C319.485 642.974 323.234 648.381 330.158 660.488C331.862 663.468 333.164 666.109 335.171 669.077C336.964 671.728 340.33 671.516 342.394 671.641C344.863 671.791 347.613 668.339 349.85 666.947C351.768 665.752 354.88 666.127 357.531 665.692C360.647 665.181 362.95 664.671 366.32 664.306C369.362 663.976 372.272 663.019 375.215 662.232C378.214 661.43 381.922 659.984 384.457 658.531C388.216 656.887 391.172 655.58 393.908 654.281C394.742 653.666 394.892 653.419 394.485 651.558C392.438 645.43 388.71 632.733 390.061 631.896C392.337 630.485 394.677 630.307 396.109 630.66C401.789 632.059 404.805 637.985 407.291 643.633C409.344 648.295 412.032 656.999 413.264 661.563C414.496 666.126 413.942 666.386 410.563 667.553C407.185 668.72 400.999 670.787 395.855 672.557C386.776 675.68 381.893 677.779 378.696 679.527C376.415 680.774 372.611 682.4 367.735 684.401C357.039 688.79 350.242 691.261 348.961 691.845C347.86 692.346 340.588 695.033 329.92 698.904C323.282 701.314 316.358 701.544 312.266 702.03C309.198 702.394 302 700.476 299.358 700.205M299.358 700.205C299.932 704.91 300.321 708.244 300.246 710.421C300.107 714.445 296.337 716.486 295.064 717.899C294.444 718.588 293.118 718.314 292.131 717.915C288.209 716.33 285.568 706.995 280.342 690.9C273.263 669.1 267.913 652.86 264.773 646.187C259.999 636.04 261.718 628.317 259.052 609.509C257.417 597.975 251.45 578.166 248.947 567.359C246.228 555.618 246.066 552.204 244.296 542.079C242.934 534.283 241.855 520.894 240.986 511.466M240.986 511.466C240.116 502.039 239.803 496.928 237.515 485.209C235.226 473.491 230.973 455.321 228.659 443.123C227.567 437.371 226.936 433.07 226.469 429.248M240.986 511.466C238.157 514.058 232.505 520.763 229.394 518.156C228.509 517.415 231.786 509.36 223.514 508.722C219.56 508.417 215.538 510.046 213.052 509.164C210.532 508.271 206.335 498.407 199.557 498.197C195.334 498.066 188.809 499.736 187.726 502.689C187.08 504.448 186.274 506.136 186.383 507.544C186.636 510.832 187.933 515.188 191.068 517.032C195.331 519.539 201.653 521.591 199.7 523.884C198.866 524.863 197.21 525.493 195.04 526.651C188.596 530.089 184.896 534.338 180.592 533.977C177.82 533.744 175.881 531.214 172.081 529.729C170.656 529.172 168.456 529.428 166.093 530.64C165.117 531.141 164.455 531.61 164.89 533.334C166.092 538.094 167.935 542.909 166.272 544.789C165.485 545.68 163.504 547.392 160.743 547.187C157.369 546.938 154.249 545.456 149.423 542.626C143.472 539.135 138.435 536.015 135.449 536.798C133.317 537.357 130.792 538.067 130.898 539.332C131.015 540.723 131.39 542.223 132.405 543C134.886 544.9 153.924 553.843 149.748 558.995C148.067 561.071 146.551 563.927 143.163 564.011C140.473 564.078 137.873 563.184 131.898 559.777C120.834 553.467 109.554 547.344 106.253 548.245C104.272 548.786 102.473 549.307 101.73 550.252C101.338 550.749 101.08 551.43 101.048 552.059C101.016 552.688 101.163 553.271 101.503 553.812C102.203 554.924 103.617 556.204 105.439 557.335C108.561 559.273 120.599 566.875 129.311 571.354M183.007 554.559C183.028 554.547 183.049 554.536 183.071 554.525C185.743 553.095 188.502 551.01 190.871 548.866C193.84 546.179 199.58 541.982 202.917 542.544C205.474 542.975 208.124 544.306 210.512 545.877C212.949 547.481 215.52 549.618 218.293 551.112C222.198 553.215 225.346 554.446 227.927 552.975C228.531 552.63 229.139 552.13 229.167 551.537C229.224 550.366 228.992 549.077 228.196 548.089C226.423 545.889 219.722 541.101 222.304 539.4C225.09 537.565 227.954 535.506 232.176 533.27C236.795 530.823 238.379 530.27 242.394 526.758C241.87 521.453 241.404 516.001 240.986 511.466M199.141 284.152C198.006 278.246 196.994 272.715 196.271 268.18C195.3 262.097 191.316 252.661 188.947 244.106C186.579 235.552 185.093 228.367 182.985 219.211C180.878 210.054 178.195 199.144 176.132 188.166C174.069 177.189 172.708 166.476 170.708 156.43C166.872 137.161 163.058 125.154 162.39 118.933C161.006 106.039 159.276 97.6436 156.373 87.6729C153.432 77.5777 157.441 71.4956 157.671 64.5554C157.154 57.5421 155.765 51.338 157.882 41.061C153.218 26.9621 146.176 2.30091 148.315 3.01492C153.584 4.77448 153.802 11.7911 159.877 30.144C161.732 35.7475 161.43 41.0509 161.751 50.1375C161.947 55.6789 162.665 63.0826 171.449 102.782C173.783 113.332 176.694 126.147 179.887 140.042M196.271 268.18C185.673 271.076 176.964 267.899 170.474 268.82C154.51 271.088 148.969 271.498 145.08 271.518C140.345 271.543 134.7 271.671 130.265 272.11C126.292 272.504 121.611 271.416 112.408 273.268C103.996 274.96 99.3125 276.073 87.9438 278.856C81.7747 280.365 77.1823 279.509 73.8013 279.772C69.3846 280.116 56.6711 281.744 46.6488 280.492C45.2961 280.322 43.9497 280.276 43.3048 277.689C39.0537 260.639 37.6327 240.173 31.9534 237.407C31.1481 237.014 30.2051 236.919 29.3581 237.135C28.5112 237.351 27.6309 237.797 27.2747 238.743C26.4892 240.829 25.4629 244.091 25.4617 250.148C25.4597 259.889 29.0949 272.444 27.3802 279.196C27.1051 280.279 26.7777 281.301 25.035 281.886C14.233 285.514 1.54241 292.052 -0.398434 288.306C-3.42162 282.47 -7.48779 268.89 -6.30879 260.951C-5.12665 252.991 -4.89962 245.216 -8.81958 242.186C-9.50129 241.659 -10.4383 241.375 -11.2359 241.689C-12.8386 242.319 -14.3917 243.485 -14.6623 245.241C-15.2658 249.158 -14.1187 253.649 -16.7684 272.776C-17.9532 281.328 -20.6245 293.273 -21.1725 299.985C-22.1691 312.191 -17.898 329.325 -16.2281 334.898C-15.9209 336.857 -15.1254 339.857 -13.9283 341.784C-12.7312 343.711 -13.5007 342.836 -12.1964 342.987C-10.8921 343.139 -9.37502 343.028 -8.31006 342.181C-3.60312 338.435 0.987336 329.601 3.00033 324.218C4.57925 319.996 5.48216 315.827 5.02589 312.113C4.54043 308.162 0.0153537 300.891 3.70473 297.241C4.94418 296.015 6.671 295.248 8.47046 295.295C12.3772 295.397 16.721 294.937 20.7584 297.735C22.4163 298.884 24.0593 308.7 27.059 322.499C29.2584 332.618 30.3031 346.898 36.0733 351.358C36.8708 351.975 38.0251 352.469 38.5041 351.861C41.0356 348.646 44.0524 342.756 43.9663 332.959C43.9188 327.538 29.3123 298.385 40.6509 296.104C42.0922 295.814 44.8973 296.339 48.7346 297.094C53.5614 298.045 58.0178 299.139 64.6276 297.695C72.2056 296.039 83.0911 293.594 99.2068 291.208C117.15 288.55 123.921 288.188 133.288 287.553C139.636 287.123 143.916 285.142 148.208 286.435L148.387 286.489C152.864 287.837 158.089 289.411 162.58 293.457C166.119 296.646 170.562 300.411 173.071 305.245C175.64 310.193 178.831 319.284 182.14 317.574C185.192 315.996 188.48 313.142 189.71 309.222C190.332 307.244 190.694 304.918 189.345 303.351C186.385 299.909 180.753 298.007 178.907 294.342C177.942 292.427 176.923 290.265 177.475 288.557C177.737 287.747 178.378 286.998 179.213 286.735C180.849 286.221 194.986 284.14 199.141 284.152M170.708 156.43C167.531 156.794 157.52 156.929 155.597 157.482C149.875 159.13 154.523 171.587 155.01 177.902C155.238 180.869 153.776 183.242 151.879 184.838C150.972 185.602 149.742 185.681 148.757 185.461C142.791 184.126 142.817 172.324 143.195 166.591C143.659 159.533 140.81 152.416 136.993 147.969C133.192 143.542 125.895 144.314 117.585 146.541C114.327 147.415 111.941 147.812 110.18 148.687C106.183 150.672 109.195 159.799 110.382 166.386C111.974 175.22 108.872 184.666 106.904 192.162C106.579 193.4 106.221 194.348 105.439 194.631C104.657 194.914 103.398 194.487 102.422 193.835C96.2589 189.718 95.6199 177.349 94.465 168.184C93.7431 162.454 92.8318 157.876 91.0644 154.066C90.3454 152.516 88.9903 152.3 87.8137 152.269C82.9006 152.138 78.1471 153.39 68.7222 155.703C62.3239 157.274 57.9896 155.925 54.0422 154.697L53.8948 154.651C48.3338 152.922 41.5614 155.26 37.4692 156.165C33.1647 157.117 28.4231 157.74 23.4799 157.682C18.2175 157.621 13.2891 160.016 8.15641 162.298C2.39227 164.86 6.52184 173.718 7.14085 178.714C7.8765 184.651 8.05394 190.817 7.24979 195.407C7.05105 196.541 6.38898 197.471 5.74177 197.575C4.31523 196.892 -0.469815 192.729 -2.37889 187.824C-2.47585 187.533 -5.24765 179.236 -9.72197 163.061C-16.3416 139.13 -12.6587 133.974 -11.7349 126.116C-10.8925 118.952 -9.35536 111.906 -8.56918 105.204C-7.98645 100.236 -7.45309 96.4017 -6.93515 95.2977C-4.80978 90.7673 -2.54265 106.492 -3.44292 116.076C-4.00908 122.103 -5.26722 127.474 -4.30062 136.265C-3.95838 139.378 -3.24367 142.174 -1.31584 144.28C4.40649 150.532 13.368 143.049 17.9097 141.983C23.1073 140.763 26.4756 140.702 28.2521 140C32.1271 138.469 31.1691 131.539 31.8097 120.4C32.0576 116.09 32.0033 113.452 33.088 111.802C33.6227 110.989 34.7509 110.712 35.6791 111.043C41.256 113.034 41.1676 123.46 47.2304 140.002C50.3538 148.524 61.4034 142.735 67.8192 141.756C72.6137 141.024 76.9923 139.878 82.3299 137.763C83.5924 137.263 83.8858 135.83 84.1111 134.595C85.7137 125.804 78.7551 109.47 79.2684 102.905C79.4498 100.585 81.4864 98.7981 83.2498 97.7736C84.0949 97.2827 85.2887 98.0101 86.2178 98.9191C91.0091 103.607 91.0456 111.29 90.9461 117.754C90.8431 124.445 92.9775 128.715 94.0086 133.493C94.546 135.983 96.5766 138.61 98.5139 141.413C104.575 150.183 129.671 135.804 133.557 134.526C136.183 133.662 134.908 123.745 136.108 114.435C136.487 111.499 137.72 112.413 139.137 115.704C145.802 131.178 145.293 135.989 144.808 139.838C144.696 140.725 145.833 141.477 146.825 141.886C150.78 143.518 163.208 142.895 167.52 141.751C168.533 146.082 169.62 150.964 170.708 156.43ZM179.846 140.037C179.859 140.039 179.873 140.04 179.887 140.042M199.223 284.153C199.196 284.152 199.169 284.152 199.141 284.152M224.404 410.459C224.37 410.471 224.336 410.482 224.301 410.494M226.581 429.24C226.544 429.242 226.507 429.245 226.469 429.248M129.311 571.354L129.825 571.619M129.311 571.354C129.482 571.442 129.654 571.531 129.825 571.619M183.071 554.525L183.007 554.559M268.845 661.139C268.791 661.149 268.737 661.158 268.683 661.168C266.229 661.61 264.126 661.886 262.037 661.834C258.429 661.746 252.55 662.264 249.478 662.125C243.092 661.835 232.881 662.605 228.731 662.821C226.134 662.956 222.456 663.342 221.696 660.704C220.904 657.957 220.149 651.605 221.233 647.111C222.581 641.519 224.73 635.797 223.716 633.614C223.175 632.451 222.541 631.267 221.496 630.595C220.981 630.263 220.37 629.962 219.289 630.286C216.595 631.092 214.329 631.809 213.591 632.775C211.344 635.713 207.705 645.909 201.101 651.13C199.568 652.341 194.098 653.734 186.98 651.658C178.352 649.14 172.222 647.536 171.559 646.653C169.816 644.33 168.339 641.248 168.518 638.072C168.712 634.635 170.453 628.994 168.149 625.348C167.214 623.87 166.321 622.209 165.109 622.3C164.025 622.38 161.671 622.617 160.322 625.499C158.522 629.347 155.805 638.853 152.814 642.607C151.951 643.69 150.488 644.919 147.407 644.88C142.373 644.818 134.59 643.214 126.193 642.482C120.253 641.964 116.631 642.19 115.755 641.054C115.048 640.137 113.956 638.511 114.981 632.04C115.875 626.395 117.345 622.413 114.714 617.959C112.556 614.307 109.147 608.912 105.999 609.826C104.865 610.155 103.806 610.65 103.127 611.497C101.582 613.426 100.441 626.474 94.5822 628.309C91.0529 629.414 82.7447 632.245 78.6556 630.543C77.5067 630.064 74.3262 624.983 73.0312 616.867C72.0126 610.484 72.9327 605.344 71.3272 602.363C70.7489 601.289 69.8485 599.707 68.4925 600.088C65.4951 600.931 62.5821 602.265 59.1627 606.108C54.2504 611.628 52.2288 616.33 48.8331 618.995C45.3607 621.72 41.6469 623.823 38.6383 623.494L38.582 623.488C37.3456 623.353 35.7859 623.183 35.3356 621.822C34.0325 617.885 39.3571 606.929 37.2678 600.013C36.5055 597.49 35.6854 595.496 34.635 595.126C34.0854 594.932 33.3764 594.778 31.8845 595.333C25.2621 597.796 23.6052 599.854 18.7192 604.579C12.7449 610.356 9.58327 613.567 10.3657 615.95C11.2689 618.701 12.6835 621.212 15.6386 623.052C18.4556 624.807 27.1292 628.408 38.2649 633.397C45.2836 636.541 49.5249 639.794 58.0641 643.345C61.6944 644.855 70.5573 645.897 80.6663 649.346C85.9607 651.152 88.6989 651.905 91.3565 653.114C93.5578 654.115 98.0318 657.616 109.76 659.379C114.796 660.136 122.384 660.856 129.521 662.163C136.657 663.47 143.144 665.309 148.231 667.174C153.317 669.039 156.878 670.91 160.296 672.537C166.699 675.587 171.905 677.572 178.206 679.974L178.207 679.975L178.571 680.114C183.032 681.815 189.703 684.485 194.898 686.375C200.094 688.264 203.704 689.34 207.296 690.062C210.888 690.784 214.357 691.142 221.07 692.336C227.783 693.529 237.447 695.498 244.231 696.639C251.015 697.779 254.812 698.281 259.279 697.923C268.767 697.164 279.485 696.724 282.273 696.879L270.454 661.054C270.149 661.164 269.69 660.985 268.845 661.139ZM268.683 661.168L268.845 661.139M129.825 571.619C136.455 575.028 142.796 578.289 146.933 579.253C152.102 580.458 153.618 580.762 154.183 580.734C156.711 581.346 161.296 583.708 161.461 581.369C161.526 580.436 161.015 579.182 160.2 578.012C158.629 575.757 155.008 571.795 157.659 570.581C160.344 569.351 165.462 570.229 170.375 571.319C175.505 572.456 178.234 574.035 181.407 574.815C182.844 575.169 185.75 574.871 188.697 573.152C189.827 572.493 190.189 571.918 190.134 571.177C190.015 569.548 190.517 567.144 188.853 564.392C186.948 561.245 182.105 558.557 181.967 555.607C181.944 555.126 182.451 554.856 183.007 554.559M226.469 429.248C225.945 424.964 225.627 421.282 225.098 416.835C224.839 414.662 224.573 412.549 224.301 410.494M226.469 429.248C222.403 429.54 212.963 429.426 208.299 430.474C203.688 431.51 199.309 434.496 194.521 432.516C192.803 431.806 191.307 430.434 190.014 428.74C188.981 427.387 184.636 414.836 178.239 396.588C175.216 387.966 174.309 384.616 172.878 384.634C171.346 384.654 168.748 385.898 164.758 384.467C162.908 383.803 161.041 383.017 160.284 381.26C159.391 379.189 158.208 377.038 158.851 375.513C160.035 372.709 165.553 370.902 165.779 367.319C165.872 365.846 147.112 339.874 156.903 331.843C158.12 330.844 159.8 330.174 161.565 330.612C163.217 331.023 165.155 331.775 166.927 333.495C168.902 335.412 172.114 339.815 172.852 345.74C173.501 350.943 173.092 355.51 174.572 358.93C175.301 360.617 176.398 362.307 178.157 362.458C181.56 362.75 188.768 358.021 191.388 361.258C193.881 364.337 195.687 369.561 195.515 372.696C195.473 373.458 195.381 374.209 194.132 374.989C192.884 375.769 190.55 376.554 189.153 377.344C187.756 378.134 187.052 378.978 187.779 381.111C191.269 391.355 192.56 395.311 194.928 399.952C197.326 404.652 199.92 411.978 202.933 415.358C203.489 415.983 204.215 416.711 205.339 416.452C210.407 415.286 219.122 412.226 224.301 410.494M224.301 410.494C222.141 394.144 219.641 381.469 217.862 371.393C216.459 363.443 214.583 350.979 212.489 341.228C208.926 324.631 205.102 313.993 203.744 307.277L203.57 306.413C202.109 299.186 200.532 291.387 199.141 284.152M179.887 140.042C180.882 144.372 181.904 148.807 182.945 153.312C187.941 152.838 208.048 149.853 216.173 148.712C221.773 147.926 226.165 147.632 230.713 148.897C236.217 150.429 241.945 149.567 247.107 151.172C252.471 152.841 264.288 155.137 274.762 154.472C280.691 154.096 288.621 151.67 306.095 147.642C314.901 145.612 320.977 144.362 325.582 146.142C329.705 147.735 333.433 151.391 336.866 157.393C339.907 162.711 341.286 174.568 347.207 176.89C348.173 177.269 349.489 177.3 350.49 176.355C352.728 174.24 339.577 155.882 346.926 145.942C347.801 144.758 349.689 143.741 351.166 143.868C356.46 144.327 365.533 147.35 374.602 145.267C376.273 144.883 377.394 144.236 377.463 142.95C377.624 139.943 376.806 135.401 376.923 129.875C377.04 124.373 378.457 118.337 374.982 112.862C372.004 108.169 367.676 102.894 363.09 102.822C361.968 102.805 360.356 103.122 360.488 104.027C361.23 109.096 365.714 117.647 365.493 124.579C365.457 125.72 365.023 126.764 364.102 127.085C362.172 127.757 359.452 128.837 355.225 129.545C344.442 131.349 338.882 131.898 334.053 133.137C326.218 135.148 317.124 140.537 310.185 137.292C305.983 135.328 300.591 133.583 297.884 126.919C291.736 111.783 286.168 93.6837 276.496 89.0536C275.495 88.5741 273.277 87.4423 273.272 88.6114C273.219 100.838 282.101 124.657 280.418 131.656C280.041 133.221 279.406 134.274 277.531 134.977C272.929 136.704 268.37 138.033 265.231 138.795C259.135 140.274 251.269 143.615 247.943 140.974C246.263 139.64 244.247 136.789 243.63 132.942C242.871 128.202 244.015 121.083 241.624 113.898C238.956 105.882 235.185 95.5985 233.396 98.8338C232.725 100.046 231.353 103.325 232.275 107.628C233.471 113.217 235.67 119.141 233.984 123.702C232.22 128.47 224.172 129.684 224.2 133.929C224.206 134.834 225.029 135.927 224.865 136.566C224.7 137.205 223.584 137.398 222.477 137.544L222.127 137.59C217.024 138.262 209.989 139.188 197.038 139.697C188.721 140.023 184.157 140.521 179.887 140.042ZM208.896 264.882C214.323 264.356 218.513 265.085 223.443 265.048C231.417 264.99 236.406 265.607 244.106 265.653C250.252 265.69 256.019 266.447 260.367 265.834C270.994 264.336 271.012 250.701 274.335 239.277C278.756 224.081 281.209 215.383 284.904 209.079C286.366 206.585 288.191 205.462 289.791 205.21C291.544 204.934 292.591 207.619 293.411 209.431C294.875 212.662 292.347 221.697 288.518 242.487C286.837 251.616 286.389 258.14 286.127 261.947L286.101 262.322C285.994 263.878 286.213 264.741 288.203 265.032C293.94 265.869 299.102 264.703 305.117 264.593C329.885 264.143 337.248 265.034 341.165 265.701C344.869 266.331 348.767 267.307 352.369 269.38C353.444 269.998 353.74 271.924 353.726 273.108C353.712 274.291 353.055 275.034 351.736 275.744C345.677 279.006 336.332 278.362 326.435 279.235C319.568 279.841 315.844 279.912 312.536 281.357C305.507 284.426 316.283 305.307 317.623 312.825C318.278 316.499 317.38 320.961 315.82 324.37C315.544 324.974 314.364 324.46 313.59 324.022C310.083 322.037 304.459 310.123 300.49 302.966C297.494 297.563 293.538 291.383 290.102 286.291C287.794 282.868 283.368 281.755 277.794 279.56C271.709 277.164 267.018 277.688 252.958 279.74C240.281 281.591 234.241 281.417 228.872 281.957C224.383 282.408 217.2 282.893 213.209 283.447L208.896 264.882ZM256.091 502.868C261.46 499.083 267.259 495.44 268.199 494.372C268.638 493.874 268.45 493.108 268.183 492.441C266.211 487.509 259.182 482.533 257.204 480.445C256.32 479.512 255.125 477.429 253.917 474.968C253.457 474.032 253.949 473.48 254.433 473.122C256.427 471.647 262.384 473.852 266.654 475.594C268.718 476.436 270.34 477.486 271.489 478.01C272.666 478.546 274.705 478.059 277.039 477.132C281.504 475.359 283.803 470.656 285.553 468.674C289.719 463.954 269.888 456.999 266.606 453.775C263.994 451.209 263.449 448.92 263.202 447.456C263.091 446.8 263.535 446.279 263.991 445.88C264.925 445.062 266.277 444.713 267.567 444.397C270.448 443.69 277.304 447.607 291.489 452.883C300.804 456.348 306.342 457.526 310.874 459.036C319.886 462.038 328.235 468.882 331.774 472.342C333.414 473.947 334.432 476.298 334.541 478.662C334.588 479.679 332.917 480.075 331.764 480.272C325.644 481.315 318.173 477.31 309.815 476.614C305.281 476.236 302.619 477.343 297.483 478.918C293.546 480.125 290.834 484.767 290.183 487.153C290.025 487.732 290.43 488.315 290.821 488.779C292.415 490.669 295.715 490.777 298.448 490.6C299.841 490.509 300.941 488.769 302.382 486.822C302.744 486.334 303.253 485.969 303.857 485.873C305.206 485.658 307.004 487.224 308.714 488.958C309.874 490.134 310.197 491.396 310.268 492.599C310.304 493.206 309.99 493.809 309.642 494.353C307.531 497.648 301.01 498.411 298.567 499.691C295.481 501.309 292.181 502.842 289.187 502.834C286.07 502.825 284.125 498.841 282.829 496.617L282.823 496.607C282.511 496.071 282.212 495.558 281.453 495.465C276.954 494.917 272.758 498.671 270.625 500.943C270.176 501.422 269.731 501.907 269.588 502.439C269.445 502.971 269.631 503.548 270.006 503.988C271.725 506.002 275.095 507.587 278.162 509.656C279.641 510.654 280.729 512.151 281.46 513.707C281.795 514.42 281.724 515.11 281.512 515.721C280.518 518.577 277.3 519.642 276.057 519.897C272.851 520.556 268.485 515.834 265.997 513.799C264.994 512.979 259.658 516.166 257.891 516.428L256.091 502.868Z" stroke="black" stroke-width="6" stroke-linecap="round"/>
</svg>
