<svg width="141" height="213" viewBox="0 0 141 213" fill="none" xmlns="http://www.w3.org/2000/svg">
<path d="M103.452 37.4575C105.124 42.039 108.752 45.2946 109.012 46.4479C109.807 49.988 109.214 50.2105 108.069 50.6393C105.804 51.259 99.6287 54.1434 89.1787 54.1692C84.1113 53.6114 74.7228 50.7777 69.3963 49.988C64.5225 49.2654 59.4782 48.2778 53.3391 47.2702C47.67 46.3397 41.4794 45.8195 35.8935 40.9708C31.2536 36.9432 27.381 30.1391 25.5377 23.2872C23.8658 17.0728 21.7897 9.10237 17.8769 6.25699C15.7175 4.68673 13.1915 3.79471 10.6771 4.04091C8.33578 4.27014 4.80627 4.49592 4.32733 6.99003C3.75968 9.94609 3.92738 13.9828 4.85351 18.4683C5.92306 23.6483 5.42331 29.8881 9.94321 38.5747C12.7398 43.9492 16.3932 50.7404 25.0962 56.2343C32.0664 60.6344 40.2271 63.0971 46.8533 64.5584C52.0473 65.7038 58.5045 67.6471 65.265 68.2262C77.8937 69.308 84.5663 72.0067 89.1787 75.0412C93.2674 77.7312 99.6243 80.3149 100.996 85.231C102.234 89.6671 105.531 94.8267 103.706 111.087C102.905 118.229 102.751 123.965 99.0165 126.675C95.3321 129.35 89.8663 129.314 83.5094 132.667C76.9894 136.106 71.4881 138.932 69.1936 144.166C66.4529 150.418 63.8472 157.336 62.8693 167.915C61.7776 179.725 59.894 195.633 64.9199 198.379C68.5595 200.367 72.2544 201.293 74.9679 201.038C76.2469 200.918 77.3342 200.781 78.5732 198.811C79.8122 196.841 81.4242 193.221 82.0231 190.457C84.4358 179.326 85.3986 163.894 89.5564 160.282C93.8125 156.584 97.3453 153.714 100.388 148.568C103.385 143.497 108.703 139.568 113.743 136.489C118.137 133.804 127.119 130.134 131.841 133.346C133.821 134.693 135.433 137.191 137.631 139.309C140.926 142.486 145.38 144.668 148.143 148.791C152.18 154.815 160.334 162.933 163.939 172.182C167.386 181.024 167.884 185.595 169.233 190.086C170.908 195.661 177.217 209.888 184.534 208.957C185.579 208.824 186.654 208.221 187.397 207.283C188.884 205.407 190.818 200.638 189.277 194.224C185.385 178.019 177.007 155.65 173.968 148.62C168.996 137.121 162.561 123.379 160.572 117.695C158.505 111.789 155.441 107.517 153.882 102.898C151.93 97.1124 145.622 79.6804 152.245 74.6045C154.165 73.1326 156.455 72.0608 158.583 72.5317C160.868 73.0374 163.287 73.6014 165.521 75.0147C170.99 78.4742 175.173 81.7542 178.485 85.0835C182.158 88.7743 186.077 92.8571 188.241 97.0627C190.371 101.204 192.782 105.706 194.565 110.222C197.428 117.473 200.964 128.168 206.705 132.101C207.909 132.925 209.017 132.925 209.571 130.572C210.124 128.218 209.892 123.63 210.256 120.765C211.064 114.402 212.096 109.631 208.038 100.933C203.632 91.4892 195.082 82.3799 183.569 67.2296C178.06 59.9803 167.268 51.1298 158.824 49.6307C150.403 48.1355 137.779 49.0173 133.856 44.6683C130.422 40.8597 133.353 23.1184 127.575 14.1397C126.33 12.2052 124.609 9.884 121.955 8.30149C119.72 6.96876 115.928 6.16559 111.463 6.88111C108.382 7.37482 105.359 7.91236 104.233 10.2161C103.08 12.5757 99.8382 27.5584 103.452 37.4575Z" fill="#EEC545" stroke="#141414" stroke-width="8" stroke-linecap="round"/>
</svg>
