<svg width="215" height="213" viewBox="0 0 215 213" fill="none" xmlns="http://www.w3.org/2000/svg">
<path d="M103.452 37.4576C105.124 42.0391 108.752 45.2947 109.012 46.4481C109.807 49.9881 109.214 50.2106 108.069 50.6395C105.804 51.2591 99.6287 54.1436 89.1787 54.1693C84.1113 53.6115 74.7228 50.7778 69.3963 49.9881C64.5225 49.2655 59.4782 48.2779 53.3391 47.2703C47.67 46.3399 41.4794 45.8196 35.8935 40.9709C31.2536 36.9433 27.381 30.1393 25.5377 23.2874C23.8658 17.0729 21.7897 9.10249 17.8769 6.25712C15.7175 4.68685 13.1915 3.79484 10.6771 4.04103C8.33578 4.27026 4.80627 4.49604 4.32733 6.99015C3.75968 9.94622 3.92738 13.983 4.85351 18.4684C5.92306 23.6484 5.42331 29.8883 9.94321 38.5748C12.7398 43.9493 16.3932 50.7406 25.0962 56.2345C32.0664 60.6345 40.2271 63.0972 46.8533 64.5585C52.0473 65.7039 58.5045 67.6473 65.265 68.2263C77.8937 69.3081 84.5663 72.0069 89.1787 75.0414C93.2674 77.7313 99.6243 80.3151 100.996 85.2311C102.234 89.6673 105.531 94.8268 103.706 111.087C102.905 118.229 102.751 123.965 99.0165 126.675C95.3321 129.35 89.8663 129.314 83.5094 132.667C76.9894 136.106 71.4881 138.932 69.1936 144.166C66.4529 150.419 63.8472 157.337 62.8693 167.915C61.7776 179.725 59.894 195.633 64.9199 198.379C68.5595 200.367 72.2544 201.293 74.9679 201.038C76.2469 200.918 77.3342 200.781 78.5732 198.811C79.8122 196.841 81.4242 193.221 82.0231 190.457C84.4358 179.326 85.3986 163.894 89.5564 160.282C93.8125 156.584 97.3453 153.714 100.388 148.568C103.385 143.497 108.703 139.568 113.743 136.489C118.137 133.804 127.119 130.134 131.841 133.346C133.821 134.693 135.433 137.191 137.631 139.309C140.926 142.486 145.38 144.668 148.143 148.791C152.18 154.815 160.334 162.933 163.939 172.182C167.386 181.024 167.884 185.595 169.233 190.086C170.908 195.662 177.217 209.888 184.534 208.957C185.579 208.824 186.654 208.221 187.397 207.283C188.884 205.407 190.818 200.638 189.277 194.224C185.385 178.019 177.007 155.65 173.968 148.62C168.996 137.121 162.561 123.379 160.572 117.695C158.505 111.789 155.441 107.517 153.882 102.898C151.93 97.1125 145.622 79.6805 152.245 74.6046C154.165 73.1327 156.455 72.0609 158.583 72.5318C160.868 73.0375 163.287 73.6016 165.521 75.0148C170.99 78.4743 175.173 81.7543 178.485 85.0836C182.158 88.7744 186.077 92.8572 188.241 97.0628C190.371 101.204 192.782 105.706 194.565 110.222C197.428 117.473 200.964 128.168 206.705 132.101C207.909 132.926 209.017 132.926 209.571 130.572C210.124 128.218 209.892 123.63 210.256 120.765C211.064 114.402 212.096 109.631 208.038 100.933C203.632 91.4893 195.082 82.3801 183.569 67.2297C178.06 59.9804 167.268 51.1299 158.824 49.6308C150.403 48.1357 137.779 49.0174 133.856 44.6684C130.422 40.8598 133.353 23.1185 127.575 14.1398C126.33 12.2054 124.609 9.88413 121.955 8.30161C119.72 6.96888 115.928 6.16572 111.463 6.88124C108.382 7.37494 105.359 7.91249 104.233 10.2163C103.08 12.5758 99.8382 27.5585 103.452 37.4576Z" fill="#EEC545" stroke="#141414" stroke-width="8" stroke-linecap="round"/>
</svg>
