<svg width="167" height="73" viewBox="0 0 167 73" fill="none" xmlns="http://www.w3.org/2000/svg">
<path d="M81.5457 68.1019C83.0297 68.0975 84.3253 68.0942 85.3796 68.0942C85.3796 67.998 85.3796 67.9019 85.1843 58.3474C84.989 48.793 84.5984 29.7831 84.327 19.6342C84.0557 9.48517 83.9154 8.77314 83.8431 7.86742C83.7735 6.99422 83.771 5.96104 83.3431 4.62075M81.5457 68.1019C80.4079 68.1052 79.1594 68.1092 77.8239 68.1126M81.5457 68.1019C83.0655 68.2598 84.3145 68.3145 85.0788 68.3145M81.5457 68.1019C77.6489 67.697 71.9719 66.6137 68.1199 64.0346C57.5173 56.9359 54.1386 46.0013 53.0724 41.0287C51.3544 33.0161 57.5342 24.1203 61.4954 18.5144C64.2183 14.6608 68.3536 12.9421 71.2075 10.5643C73.0482 9.08154 75.0526 7.86102 76.972 7.03315C77.8878 6.62465 78.7169 6.22657 81.2487 4.7113M77.8239 68.1126C63.6711 68.1491 39.7574 68.1311 34.4737 66.786C21.4319 63.4658 16.5451 59.4981 13.4017 56.5066C10.2181 53.4767 9.60502 41.7956 10.5938 35.0231C10.8436 33.3119 14.9133 28.8213 20.7545 23.8503C28.2782 17.4475 41.4393 13.0919 53.6039 8.99536C60.1076 6.80518 66.1264 5.82558 72.2996 5.27474M77.8239 68.1126C72.2884 67.9109 65.7992 67.7031 63.9928 67.6811C56.3632 67.479 53.0076 66.9474 49.1379 65.9809C45.5376 64.5377 41.9241 62.4156 39.5043 59.5789C37.2071 56.8859 34.4503 53.8836 34.5357 47.682C34.6795 37.239 35.3584 33.2406 37.1287 29.0475C38.4502 25.9175 40.6136 22.6794 43.8172 19.7795C46.9212 16.9698 50.0998 14.5652 53.4767 12.836C58.3753 10.3277 63.8411 7.31313 68.1736 6.0935C69.442 5.73646 70.8603 5.47145 72.2996 5.27474M77.8239 68.1126C81.0244 68.2292 83.9061 68.3438 85.3796 68.4193M72.2996 5.27474C74.8945 5.0432 77.5167 4.88742 80.2136 4.74934C80.4568 4.73689 80.6991 4.72505 80.9405 4.71382M72.2996 5.27474C75.5779 4.82674 78.9656 4.73311 80.9405 4.71382M80.9405 4.71382C81.0504 4.70871 81.16 4.70373 81.2695 4.69887M80.9405 4.71382C81.0475 4.71278 81.1503 4.71195 81.2487 4.7113M81.2695 4.69887C81.9684 4.66785 82.6597 4.6419 83.3431 4.62075M81.2695 4.69887C81.2626 4.70302 81.2557 4.70716 81.2487 4.7113M81.2695 4.69887C81.3019 4.67946 81.3346 4.65986 81.3676 4.64007M83.3431 4.62075C93.9549 4.29224 102.659 5.11998 108.036 6.08654C114.019 7.1623 121.202 10.2177 130.339 14.573C148.79 23.3677 153.084 30.894 155.246 37.4446C157.368 43.8697 155.266 49.1311 154.338 50.9209C152.702 54.0769 146.694 58.7073 137.949 62.3351C131.091 65.1799 122.615 66.486 122.615 66.486C122.615 66.486 108.86 67.7219 104.573 68.0051C101.529 68.0887 98.7496 68.2198 92.8475 68.377C92.2358 68.3837 91.5639 68.3896 90.8387 68.3947M83.3431 4.62075C83.3272 4.57083 83.3106 4.5205 83.2935 4.46973M90.8387 68.3947C89.2502 68.406 87.4059 68.4139 85.3796 68.4193M90.8387 68.3947C93.5837 67.469 94.5593 67.0514 95.4658 66.7038C97.2275 66.0728 99.9894 65.2855 107.288 63.0904C113.994 60.4711 118.047 58.0409 120.958 54.7806C123.522 51.9088 126.652 48.3877 125.866 40.9599C125.489 37.3942 126.079 33.1517 122.346 25.02C119.794 19.4625 117.97 16.1801 112.548 13.362C97.9544 5.77712 88.1317 4.77832 84.5098 4.77832M90.8387 68.3947C90.7684 68.4185 90.6968 68.4425 90.6241 68.4669M85.3796 68.4193C80.913 68.4314 75.5617 68.4319 70.1138 68.4324H70.1101M83.4472 4.61785C84.2002 5.11725 87.6794 8.2233 95.4327 15.5207C105.414 24.9148 106.483 31.4245 106.657 43.5502C106.731 48.7425 104.546 51.8749 100.655 58.6955C96.3335 63.8779 93.4023 65.7866 90.4304 67.5661C89.7096 67.9928 88.1926 67.7921 85.9439 68.1839M81.2487 4.7113C81.7052 4.70827 82.0674 4.70897 82.3111 4.70897M43.9205 12.5252C44.6929 12.8498 55.431 16.0647 72.2457 18.6902C78.7758 19.7098 89.4807 19.5949 95.2582 19.7943C106.665 20.188 116.31 15.1346 118.633 14.0167C119.671 13.2952 120.883 12.5651 122.24 11.9454C122.899 11.6584 123.498 11.4274 124.219 11.1144M26.1681 19.6712C26.1681 19.7057 32.3507 21.8655 44.5434 25.4485C50.4199 27.1753 56.2041 27.5641 62.0327 28.1496C73.6785 29.3196 82.0368 29.6778 88.7121 29.1846C99.4619 28.3904 107.104 26.567 110.276 25.6884C118.57 23.3916 121.994 21.3521 124.407 20.2559C126.792 19.4495 128.838 18.4624 130.18 17.6713C130.877 17.2723 131.606 16.878 132.816 16.3586M46.587 68.0665C47.1397 67.6365 49.8664 65.6344 59.2825 61.9328C68.4096 58.3448 76.7145 57.7215 83.7071 57.3377C97.144 56.6003 106.964 57.1932 109.284 57.7326C113.47 58.706 115.881 60.7984 118.039 62.1004C119.169 62.7105 120.352 63.3273 121.965 64.1244L122.048 64.1651C123.055 64.6595 124.439 65.3389 126.265 66.4189M16.6455 58.5992C17.3383 58.2004 21.429 55.7464 27.423 53.2007C33.6846 50.5413 44.1246 48.7163 53.45 47.1512C57.6264 46.4503 60.6748 46.1798 66.7946 45.244L66.9659 45.2178C70.8598 44.6222 76.3321 43.7852 83.8018 43.3303C91.3817 42.8688 100.85 42.824 106.411 42.8994C116.958 43.0422 123.171 45.5657 127.348 46.9579C135.252 49.5925 138.556 51.3388 141.072 52.8695C143.878 54.2149 145.846 55.1494 146.739 55.6595C147.225 55.8861 147.775 56.0472 148.342 56.2132" stroke="#FC401A" stroke-width="3" stroke-linecap="round"/>
</svg>
