<svg width="47" height="29" viewBox="0 0 47 29" fill="none" xmlns="http://www.w3.org/2000/svg">
<path d="M42.0986 12.049C39.813 12.7129 37.1171 12.6097 36.8291 12.8179C36.3761 13.1452 37.1194 13.5784 37.5026 13.7476C38.2908 14.0801 42.2185 14.9677 44.6139 15.7537C44.5951 15.8679 44.2391 15.9484 43.6673 16.0077C41.262 16.257 37.2615 15.4175 37.6717 16.9299C37.7584 17.2496 40.46 18.7918 44.2884 20.8444C45.7178 21.6107 46.1929 21.8263 43.4864 21.2701C40.78 20.7138 33.7765 17.9829 32.0702 19.3481C27.719 22.8296 25.5434 27.5563 23.949 26.8108C23.648 26.6701 23.3322 26.2148 22.5663 24.3521C20.4982 19.3218 21.8901 16.6463 21.3018 16.4801C21.1067 16.425 20.9545 16.7137 20.3291 17.0103C16.5866 18.7853 9.35208 20.3672 9.87516 19.6663C10.3077 19.0868 12.619 16.271 16.3148 12.8785C16.9115 12.3308 17.0954 11.9762 16.1545 11.7407C9.99539 10.1992 -0.708786 6.81921 1.90404 6.67494C2.4233 6.64627 6.47015 6.66993 12.7876 7.64883C17.796 8.42489 20.6409 9.15972 21.0386 8.84122C21.8433 8.19678 22.1178 -0.374896 23.3424 1.87652C25.1569 5.21259 27.9946 10.2014 29.55 10.3707C32.0561 10.6435 38.5617 9.70769 42.7883 10.537C43.2543 10.6284 43.7213 10.8467 43.6165 11.0205C43.3729 11.4242 42.8671 11.8258 42.0986 12.049Z" fill="#70B461" stroke="#141414" stroke-width="3" stroke-linecap="round"/>
</svg>
