<svg width="184" height="209" viewBox="0 0 184 209" fill="none" xmlns="http://www.w3.org/2000/svg">
<path d="M50.4589 35.4271C50.7196 35.4147 50.9581 35.4353 51.1716 35.4724C51.5253 35.5338 51.8104 35.6402 52.0137 35.7162C52.17 35.7745 52.278 35.8148 52.3318 35.8029C53.819 35.5264 55.1868 35.2162 56.2207 34.9393C56.5265 34.8574 56.8032 34.7784 57.045 34.704C58.4854 34.149 59.207 33.6214 59.9467 32.8456C61.8184 29.773 64.5595 25.7983 63.3853 21.2653C61.6137 14.4264 60.0271 11.0914 57.9216 10.3196C56.0323 9.62704 50.9415 9.13426 46.092 12.1742C43.0713 14.0677 39.911 16.2317 39.9232 18.7154C39.9367 21.446 40.4081 25.031 42.0132 27.0727C45.0038 30.8767 48.5151 35.52 50.4589 35.4271Z" fill="#C5C4C4"/>
<path d="M158.453 114.018C165.152 113.008 166.368 112.393 166.487 112.367C166.368 111.408 166.264 110.908 166.212 110.359C166.161 109.228 166.264 107.691 166.489 106.039C166.827 104.282 166.721 102.095 167.354 99.1954C167.86 96.882 170.564 92.1607 169.838 89.4773C168.45 84.3376 172.082 81.4653 170.025 79.2923C168.713 77.9067 162.463 75.9181 161.031 74.5655C158.411 76.8819 154.201 80.323 148.351 84.8962C143.534 88.662 138.72 93.5745 133.969 97.4312C129.648 100.939 123.196 104.567 116.604 108.016C122.2 109.281 132.95 110.45 140.84 112.123C143.82 112.755 147.46 113.518 150.388 113.917C153.315 114.316 155.481 114.466 158.453 114.018Z" fill="#2370AA"/>
<path fill-rule="evenodd" clip-rule="evenodd" d="M51.1716 35.4724C51.5253 35.5338 51.8104 35.6402 52.0137 35.7162C52.17 35.7745 52.278 35.8148 52.3318 35.8029C53.819 35.5264 55.1868 35.2162 56.2207 34.9393C54.5308 35.0178 52.8107 35.1925 51.1716 35.4724Z" fill="#C5C4C4"/>
<path d="M-11.5066 83.3978C-3.51922 83.7533 8.17229 83.5809 15.8446 83.8694C19.9325 84.0231 31.3135 85.3833 41.5545 86.8093C50.5339 88.0597 58.6369 89.3608 60.179 89.9436C63.1733 87.3725 65.5747 85.3666 67.0781 84.3129C68.8135 83.0965 70.5288 81.8103 73.3694 79.6173C74.4175 78.8081 75.6188 77.8756 77.0308 76.7776C81.0191 73.676 95.9526 61.2036 101.46 56.7577C99.8354 56.2701 89.1852 51.6544 87.9702 51.0504C86.4956 50.3174 75.9576 47.4426 67.119 46.2662L42.0655 39.8115C37.4325 39.2432 24.4813 38.1797 21.0755 37.7774C16.2685 37.2096 7.06844 35.4429 1.87446 34.9051C-0.335244 34.6763 -3.88423 34.2569 -10.1911 32.8654C-16.4981 31.4739 -19.7758 32.4431 -25.868 31.0786C-31.9603 29.714 -36.334 29.8296 -37.1293 29.9096C-40.0572 30.2042 -41.6832 35.7709 -42.6369 37.4043C-43.0534 38.1175 -43.6578 38.8306 -43.4849 39.9228C-42.9349 43.3976 -44.4111 47.0831 -44.1521 55.82C-44.025 60.105 -43.837 64.7672 -41.9155 68.8998C-39.1503 74.8468 -36.7241 78.4004 -34.552 79.3443C-33.0141 80.0127 -30.3885 80.5123 -25.7991 81.5938C-23.4228 82.1539 -19.4939 83.0424 -11.5066 83.3978Z" fill="#2370AA"/>
<path d="M67.119 46.2662C65.4384 40.084 64.7637 35.2786 61.4928 35.014C59.8676 34.8825 58.0621 34.8537 56.2207 34.9393C55.1868 35.2162 53.819 35.5264 52.3318 35.8029C52.278 35.8148 52.17 35.7745 52.0137 35.7162C51.8104 35.6402 51.5253 35.5338 51.1716 35.4724C46.9932 36.1859 43.3422 37.583 42.0655 39.8115L67.119 46.2662Z" fill="#C5C4C4"/>
<path d="M65.3645 189.808C65.6904 181.902 66.341 170.53 67.7417 164.129C69.6678 155.327 70.8313 146.831 71.3912 139.812C63.178 145.585 52.4156 153.28 44.0784 159.077C43.9454 167.163 43.2747 180.038 43.5881 189.731C43.6951 193.041 43.2298 196.339 42.2968 202.952C41.7202 207.04 40.9649 212.394 40.0557 219.799C39.6955 222.733 39.472 225.322 39.2653 227.718C38.9009 231.94 38.5885 235.561 37.6707 239.409C35.2371 249.615 36.4277 256.189 37.5924 262.62C37.6472 262.922 37.7019 263.224 37.7562 263.527C39.3797 272.564 39.5544 281.377 37.1836 287.629C35.549 291.94 34.057 297.007 32.8674 302.233C31.4426 308.492 31.7105 314.544 32.7866 327.86C32.953 329.919 33.0753 332.196 33.2032 334.576C33.8011 345.701 34.5199 359.078 40.4162 362.936C42.2183 364.115 57.925 366.302 61.4737 358.228C62.0156 356.996 62.0897 355.309 62.2673 351.266C62.3781 348.746 62.5291 345.31 62.8587 340.497C63.0997 336.979 63.411 332.757 63.7373 328.332L63.7376 328.327C64.2833 320.926 64.8709 312.957 65.2415 306.762C65.46 303.11 65.8549 298.253 66.2692 293.157C67.075 283.246 67.9543 272.432 67.752 267.821C67.6561 265.635 67.5847 262.828 67.5035 259.636L67.5034 259.634C67.3497 253.596 67.161 246.18 66.7054 238.986C65.4375 218.971 65.1235 195.653 65.3645 189.808Z" fill="#C5C4C4"/>
<path d="M51.7142 97.2563C53.0476 96.1088 54.3382 94.992 55.5727 93.9232C55.9039 93.6364 56.2311 93.3531 56.5539 93.0735C57.7616 92.0278 58.909 91.035 59.9823 90.1125C60.0481 90.056 60.1137 89.9996 60.179 89.9436C58.6369 89.3608 50.5339 88.0597 41.5545 86.8093C41.6168 88.1526 41.6957 89.4775 41.7723 90.7634C41.9633 93.9713 42.1399 96.9367 42.0083 99.3395C41.9007 101.304 41.806 103.172 41.7328 104.949C45.4149 102.308 48.8594 99.7132 51.7142 97.2563Z" fill="#C5C4C4"/>
<path d="M170.276 19.0125C166.89 9.72066 166.088 5.47498 165.519 4.91486C164.397 5.51463 162.697 6.78793 161.719 7.20335C158.245 10.5799 127.655 34.3074 127.655 34.3074C127.655 34.3074 112.282 46.8616 107.572 51.4656C102.863 56.0696 106.968 52.3117 101.46 56.7577C95.9526 61.2036 81.0191 73.676 77.0308 76.7776C75.6188 77.8756 74.4175 78.8081 73.3694 79.6173C70.5288 81.8103 68.8135 83.0965 67.0781 84.3129C65.5747 85.3666 63.1733 87.3725 60.179 89.9436L59.9823 90.1125C58.909 91.035 57.7616 92.0278 56.5539 93.0735L55.5727 93.9232C54.3382 94.992 53.0476 96.1088 51.7142 97.2563C48.8594 99.7132 45.4149 102.308 41.7328 104.949C37.8414 107.741 33.6846 110.586 29.6782 113.378L29.5869 113.441C24.8478 116.743 16.2625 122.725 9.32876 127.16C2.35021 131.624 -2.83313 134.377 -5.95333 136.224C-10.2315 138.756 -16.0383 143.459 -23.6162 149.109C-28.9737 153.104 -33.4269 154.427 -37.3918 157.761C-41.5954 161.295 -47.2233 164.184 -46.5129 167.385C-45.744 170.85 -42.6973 177.136 -35.574 182.79C-32.3749 185.329 -29.9591 187.412 -27.3204 190.042C-23.0216 194.328 -20.5135 198.069 -17.6736 197.671C-15.5569 197.375 -13.7108 197.029 -12.0562 196.156C-9.29808 194.7 -1.1211 188.8 10.9119 181.07C16.2304 177.654 20.2142 175.476 24.6896 172.424C29.165 169.372 33.9859 165.561 42.9132 159.335C43.1143 159.195 43.8736 159.219 44.0784 159.077C52.4156 153.28 63.178 145.585 71.3912 139.812C71.9321 139.432 72.4596 139.06 72.9718 138.696C81.4528 132.67 85.6208 129.094 88.1067 127.043C91.3064 124.405 97.8425 120.757 106.519 114.779C111.582 111.29 113.611 109.582 116.604 108.016C123.196 104.567 129.648 100.939 133.969 97.4312C138.72 93.5745 143.534 88.662 148.351 84.8962C154.201 80.323 158.411 76.8819 161.031 74.5655C163.791 72.1248 166.265 70.6666 169.333 68.6198C173.396 65.9087 177.522 65.442 178.852 62.794C180.085 60.3378 178.401 52.6229 175.387 40.3646C173.97 34.5977 172.368 24.7528 170.276 19.0125Z" fill="#2370AA"/>
<path d="M42.0655 39.8115C37.4325 39.2432 24.4813 38.1797 21.0755 37.7774C16.2685 37.2096 7.06844 35.4429 1.87446 34.9051C-0.335243 34.6763 -3.88423 34.2569 -10.1911 32.8654C-16.4981 31.4739 -19.7758 32.4431 -25.868 31.0786C-31.9603 29.714 -36.334 29.8296 -37.1293 29.9096C-40.0572 30.2042 -41.6831 35.7709 -42.6369 37.4043C-43.0534 38.1175 -43.6578 38.8306 -43.4849 39.9228C-42.9349 43.3976 -44.4111 47.0831 -44.1521 55.82C-44.025 60.105 -43.837 64.7672 -41.9155 68.8998C-39.1503 74.8468 -36.7241 78.4004 -34.552 79.3443C-33.0141 80.0127 -30.3885 80.5123 -25.7991 81.5938C-23.4228 82.1539 -19.4939 83.0424 -11.5066 83.3978C-3.51922 83.7533 8.17229 83.5809 15.8446 83.8694C19.9325 84.0231 31.3135 85.3833 41.5545 86.8093M42.0655 39.8115C43.3422 37.583 46.9932 36.1859 51.1716 35.4724M101.46 56.7577C99.8354 56.2701 89.1852 51.6544 87.9702 51.0504C86.4956 50.3174 75.9576 47.4426 67.119 46.2662L42.0655 39.8115M67.119 46.2662C65.4384 40.084 64.7637 35.2786 61.4928 35.014C59.8676 34.8825 58.0621 34.8537 56.2207 34.9393M116.604 108.016C122.2 109.281 132.95 110.45 140.84 112.123C143.82 112.755 147.46 113.518 150.388 113.917C153.315 114.316 155.481 114.466 158.453 114.018C165.152 113.008 166.368 112.393 166.487 112.367C166.368 111.408 166.264 110.908 166.212 110.359C166.161 109.228 166.264 107.691 166.489 106.039C166.827 104.282 166.721 102.095 167.354 99.1954C167.86 96.882 170.564 92.1607 169.838 89.4773C168.45 84.3376 172.082 81.4653 170.025 79.2923C168.713 77.9067 162.463 75.9181 161.031 74.5655M116.604 108.016L124.855 108.996M101.46 56.7577C106.968 52.3117 102.863 56.0696 107.572 51.4656C112.282 46.8616 127.655 34.3074 127.655 34.3074C127.655 34.3074 158.245 10.5799 161.719 7.20335C162.697 6.78793 164.397 5.51463 165.519 4.91486C166.088 5.47497 166.89 9.72066 170.276 19.0125C172.368 24.7528 173.97 34.5977 175.387 40.3646C178.401 52.6229 180.085 60.3378 178.852 62.794C177.522 65.442 173.396 65.9087 169.333 68.6198C166.265 70.6666 163.791 72.1248 161.031 74.5655C158.411 76.8819 154.201 80.323 148.351 84.8962C143.534 88.662 138.72 93.5745 133.969 97.4312C129.648 100.939 123.196 104.567 116.604 108.016M44.0784 159.077C52.4156 153.28 63.178 145.585 71.3912 139.812C71.9321 139.432 72.4596 139.06 72.9718 138.696C81.4528 132.67 85.6208 129.094 88.1067 127.043C91.3064 124.404 97.8425 120.757 106.519 114.779C111.582 111.29 113.611 109.582 116.604 108.016M60.179 89.9436C58.6369 89.3608 50.5339 88.0597 41.5545 86.8093M60.179 89.9436C63.1733 87.3725 65.5747 85.3666 67.0781 84.3129M60.179 89.9436C60.1137 89.9996 60.0481 90.056 59.9823 90.1125M60.179 89.9436L59.9823 90.1125M101.46 56.7577C95.9526 61.2036 81.0192 73.676 77.0308 76.7776C75.6188 77.8756 74.4175 78.8081 73.3694 79.6173C70.5288 81.8103 68.8135 83.0965 67.0781 84.3129M67.0781 84.3129C65.5419 85.3896 63.0681 87.4605 59.9823 90.1125M71.3912 139.812C70.8313 146.831 69.6678 155.327 67.7417 164.129C66.341 170.53 65.6904 181.902 65.3645 189.808C65.1235 195.653 65.4375 218.971 66.7054 238.986C67.161 246.18 67.3497 253.596 67.5034 259.634L67.5035 259.636C67.5847 262.828 67.6561 265.635 67.752 267.821C67.9543 272.432 67.075 283.246 66.2692 293.157C65.8549 298.253 65.46 303.11 65.2415 306.762C64.8709 312.957 64.2833 320.926 63.7376 328.327L63.7373 328.332C63.411 332.757 63.0997 336.979 62.8587 340.497C62.5291 345.31 62.3781 348.746 62.2673 351.266C62.0897 355.309 62.0156 356.996 61.4737 358.228C57.925 366.302 42.2183 364.115 40.4162 362.936C34.5199 359.078 33.801 345.701 33.2032 334.576C33.0753 332.196 32.953 329.919 32.7866 327.86C31.7105 314.544 31.4426 308.492 32.8674 302.233C34.057 297.007 35.549 291.94 37.1836 287.629C39.5544 281.377 39.3797 272.564 37.7562 263.527C37.7019 263.224 37.6472 262.922 37.5924 262.62C36.4277 256.189 35.2371 249.615 37.6707 239.409C38.5885 235.561 38.9009 231.94 39.2653 227.718C39.472 225.322 39.6955 222.733 40.0557 219.799C40.9649 212.394 41.7202 207.04 42.2968 202.952C43.2298 196.339 43.6951 193.041 43.5881 189.731C43.2747 180.038 43.9454 167.163 44.0784 159.077M44.0784 159.077C43.8736 159.219 43.1143 159.195 42.9132 159.335C33.9859 165.561 29.165 169.372 24.6896 172.424C20.2142 175.476 16.2304 177.654 10.9119 181.07C-1.12111 188.8 -9.29808 194.7 -12.0562 196.156C-13.7108 197.029 -15.5569 197.375 -17.6736 197.671C-20.5135 198.069 -23.0216 194.328 -27.3204 190.042C-29.9591 187.412 -32.3749 185.329 -35.574 182.79C-42.6973 177.136 -45.744 170.85 -46.5129 167.385C-47.2233 164.184 -41.5954 161.295 -37.3918 157.761C-33.4269 154.427 -28.9737 153.104 -23.6162 149.109C-16.0383 143.459 -10.2315 138.756 -5.95333 136.224C-2.83313 134.377 2.35021 131.624 9.32876 127.16C16.2625 122.725 24.8478 116.743 29.5869 113.441L29.6782 113.378C33.6846 110.586 37.8414 107.741 41.7328 104.949M41.7328 104.949C41.806 103.172 41.9007 101.304 42.0083 99.3395C42.1399 96.9367 41.9633 93.9713 41.7723 90.7634C41.6957 89.4775 41.6168 88.1526 41.5545 86.8093M59.9823 90.1125C58.909 91.035 57.7616 92.0278 56.5539 93.0735C56.2311 93.3531 55.9039 93.6364 55.5727 93.9232C54.3382 94.992 53.0476 96.1088 51.7142 97.2563C48.8594 99.7132 45.4149 102.308 41.7328 104.949M51.1716 35.4724C51.5253 35.5338 51.8104 35.6402 52.0137 35.7162C52.17 35.7745 52.278 35.8148 52.3318 35.8029C53.819 35.5264 55.1868 35.2162 56.2207 34.9393M51.1716 35.4724C52.8107 35.1925 54.5308 35.0178 56.2207 34.9393M51.1716 35.4724C50.9581 35.4353 50.7196 35.4147 50.4589 35.4271C48.5151 35.52 45.0038 30.8767 42.0132 27.0727C40.4081 25.031 39.9367 21.446 39.9232 18.7154C39.911 16.2317 43.0713 14.0677 46.092 12.1742C50.9415 9.13426 56.0323 9.62704 57.9216 10.3196C60.0271 11.0914 61.6137 14.4264 63.3853 21.2653C64.5595 25.7983 61.8184 29.773 59.9467 32.8456C59.207 33.6214 58.4854 34.149 57.045 34.704C56.8031 34.7784 56.5265 34.8574 56.2207 34.9393M55.5727 93.9232L56.5539 93.0735" stroke="black" stroke-width="8" stroke-linecap="round"/>
</svg>
