<svg width="234" height="369" viewBox="0 0 234 369" fill="none" xmlns="http://www.w3.org/2000/svg">
<path d="M101.035 35.4271C101.295 35.4147 101.534 35.4353 101.747 35.4724C102.101 35.5338 102.386 35.6402 102.589 35.7162C102.746 35.7745 102.854 35.8148 102.908 35.8029C104.395 35.5264 105.762 35.2162 106.796 34.9393C107.102 34.8574 107.379 34.7784 107.621 34.704C109.061 34.149 109.783 33.6214 110.522 32.8456C112.394 29.773 115.135 25.7983 113.961 21.2653C112.189 14.4264 110.603 11.0914 108.497 10.3196C106.608 9.62704 101.517 9.13426 96.6676 12.1742C93.647 14.0677 90.4867 16.2317 90.4989 18.7154C90.5124 21.446 90.9838 25.031 92.5889 27.0727C95.5795 30.8767 99.0908 35.52 101.035 35.4271Z" fill="#C5C4C4"/>
<path d="M209.029 114.018C215.728 113.008 216.943 112.393 217.063 112.367C216.944 111.408 216.84 110.908 216.788 110.359C216.737 109.228 216.84 107.691 217.065 106.039C217.402 104.282 217.296 102.095 217.93 99.1954C218.436 96.882 221.139 92.1607 220.414 89.4773C219.025 84.3376 222.658 81.4653 220.601 79.2923C219.289 77.9067 213.039 75.9181 211.606 74.5655C208.986 76.8819 204.777 80.323 198.927 84.8962C194.109 88.662 189.296 93.5745 184.545 97.4312C180.223 100.939 173.772 104.567 167.18 108.016C172.776 109.281 183.525 110.45 191.416 112.123C194.396 112.755 198.036 113.518 200.963 113.917C203.891 114.316 206.057 114.466 209.029 114.018Z" fill="#2370AA"/>
<path fill-rule="evenodd" clip-rule="evenodd" d="M101.747 35.4724C102.101 35.5338 102.386 35.6402 102.589 35.7162C102.746 35.7745 102.854 35.8148 102.908 35.8029C104.395 35.5264 105.762 35.2162 106.796 34.9393C105.107 35.0178 103.386 35.1925 101.747 35.4724Z" fill="#C5C4C4"/>
<path d="M39.0691 83.3978C47.0565 83.7533 58.748 83.5809 66.4203 83.8694C70.5082 84.0231 81.8892 85.3833 92.1302 86.8093C101.11 88.0597 109.213 89.3608 110.755 89.9436C113.749 87.3725 116.15 85.3666 117.654 84.3129C119.389 83.0965 121.104 81.8103 123.945 79.6173C124.993 78.8081 126.194 77.8756 127.606 76.7776C131.595 73.676 146.528 61.2036 152.036 56.7577C150.411 56.2701 139.761 51.6544 138.546 51.0504C137.071 50.3174 126.533 47.4426 117.695 46.2662L92.6412 39.8115C88.0082 39.2432 75.057 38.1797 71.6512 37.7774C66.8442 37.2096 57.6441 35.4429 52.4501 34.9051C50.2404 34.6763 46.6915 34.2569 40.3845 32.8654C34.0776 31.4739 30.7999 32.4431 24.7076 31.0786C18.6154 29.714 14.2417 29.8296 13.4463 29.9096C10.5185 30.2042 8.89253 35.7709 7.93874 37.4043C7.52225 38.1175 6.9179 38.8306 7.09077 39.9228C7.64075 43.3976 6.16458 47.0831 6.42361 55.82C6.55065 60.105 6.73865 64.7672 8.66019 68.8998C11.4254 74.8468 13.8516 78.4004 16.0237 79.3443C17.5616 80.0127 20.1872 80.5123 24.7765 81.5938C27.1529 82.1539 31.0818 83.0424 39.0691 83.3978Z" fill="#2370AA"/>
<path d="M117.695 46.2662C116.014 40.084 115.339 35.2786 112.068 35.014C110.443 34.8825 108.638 34.8537 106.796 34.9393C105.762 35.2162 104.395 35.5264 102.908 35.8029C102.854 35.8148 102.746 35.7745 102.589 35.7162C102.386 35.6402 102.101 35.5338 101.747 35.4724C97.5689 36.1859 93.9179 37.583 92.6412 39.8115L117.695 46.2662Z" fill="#C5C4C4"/>
<path d="M115.94 189.808C116.266 181.902 116.917 170.53 118.317 164.129C120.244 155.327 121.407 146.831 121.967 139.812C113.754 145.585 102.991 153.28 94.6541 159.077C94.521 167.163 93.8503 180.038 94.1638 189.731C94.2708 193.041 93.8055 196.339 92.8725 202.952C92.2959 207.04 91.5406 212.394 90.6314 219.799C90.2711 222.733 90.0477 225.322 89.8409 227.718C89.4766 231.94 89.1641 235.561 88.2464 239.409C85.8127 249.615 87.0034 256.189 88.1681 262.62C88.2229 262.922 88.2776 263.224 88.3318 263.527C89.9554 272.564 90.1301 281.377 87.7592 287.629C86.1247 291.94 84.6327 297.007 83.4431 302.233C82.0183 308.492 82.2862 314.544 83.3623 327.86C83.5286 329.919 83.651 332.196 83.7789 334.576C84.3767 345.701 85.0956 359.078 90.9919 362.936C92.794 364.115 108.501 366.302 112.049 358.228C112.591 356.996 112.665 355.309 112.843 351.266C112.954 348.746 113.105 345.31 113.434 340.497C113.675 336.979 113.987 332.757 114.313 328.332L114.313 328.327C114.859 320.926 115.447 312.957 115.817 306.762C116.036 303.11 116.431 298.253 116.845 293.157C117.651 283.246 118.53 272.432 118.328 267.821C118.232 265.635 118.16 262.828 118.079 259.636L118.079 259.634C117.925 253.596 117.737 246.18 117.281 238.986C116.013 218.971 115.699 195.653 115.94 189.808Z" fill="#C5C4C4"/>
<path d="M102.29 97.2563C103.623 96.1088 104.914 94.992 106.148 93.9232C106.48 93.6364 106.807 93.3531 107.13 93.0735C108.337 92.0278 109.485 91.035 110.558 90.1125C110.624 90.056 110.689 89.9996 110.755 89.9436C109.213 89.3608 101.11 88.0597 92.1302 86.8093C92.1925 88.1526 92.2714 89.4775 92.3479 90.7634C92.539 93.9713 92.7156 96.9367 92.584 99.3395C92.4764 101.304 92.3817 103.172 92.3085 104.949C95.9906 102.308 99.4351 99.7132 102.29 97.2563Z" fill="#C5C4C4"/>
<path d="M220.852 19.0125C217.466 9.72066 216.664 5.47497 216.095 4.91486C214.973 5.51463 213.272 6.78793 212.295 7.20335C208.82 10.5799 178.23 34.3074 178.23 34.3074C178.23 34.3074 162.857 46.8616 158.148 51.4656C153.438 56.0696 157.544 52.3117 152.036 56.7577C146.528 61.2036 131.595 73.676 127.606 76.7776C126.194 77.8756 124.993 78.8081 123.945 79.6173C121.104 81.8103 119.389 83.0965 117.654 84.3129C116.15 85.3666 113.749 87.3725 110.755 89.9436L110.558 90.1125C109.485 91.035 108.337 92.0278 107.13 93.0735L106.148 93.9232C104.914 94.992 103.623 96.1088 102.29 97.2563C99.4351 99.7132 95.9906 102.308 92.3085 104.949C88.4171 107.741 84.2603 110.586 80.2539 113.378L80.1626 113.441C75.4235 116.743 66.8382 122.725 59.9044 127.16C52.9259 131.624 47.7426 134.377 44.6224 136.224C40.3442 138.756 34.5374 143.459 26.9595 149.109C21.602 153.104 17.1488 154.427 13.1839 157.761C8.98033 161.295 3.3524 164.184 4.06275 167.385C4.83163 170.85 7.87839 177.136 15.0017 182.79C18.2008 185.329 20.6165 187.412 23.2553 190.042C27.5541 194.328 30.0622 198.069 32.9021 197.671C35.0188 197.375 36.8649 197.029 38.5194 196.156C41.2776 194.7 49.4546 188.8 61.4876 181.07C66.8061 177.654 70.7899 175.476 75.2653 172.424C79.7406 169.372 84.5616 165.561 93.4888 159.335C93.69 159.195 94.4493 159.219 94.6541 159.077C102.991 153.28 113.754 145.585 121.967 139.812C122.508 139.432 123.035 139.06 123.547 138.696C132.029 132.67 136.196 129.094 138.682 127.043C141.882 124.404 148.418 120.757 157.095 114.779C162.157 111.29 164.187 109.582 167.18 108.016C173.772 104.567 180.223 100.939 184.545 97.4312C189.296 93.5745 194.109 88.662 198.927 84.8962C204.777 80.323 208.986 76.8819 211.606 74.5655C214.367 72.1248 216.841 70.6666 219.909 68.6198C223.972 65.9087 228.098 65.442 229.427 62.794C230.66 60.3378 228.976 52.6229 225.963 40.3646C224.546 34.5977 222.944 24.7528 220.852 19.0125Z" fill="#2370AA"/>
<path d="M92.6412 39.8115C88.0082 39.2432 75.057 38.1797 71.6512 37.7774C66.8442 37.2096 57.6441 35.4429 52.4501 34.9051C50.2404 34.6763 46.6915 34.2569 40.3845 32.8654C34.0776 31.4739 30.7999 32.4431 24.7076 31.0786C18.6154 29.714 14.2417 29.8296 13.4463 29.9096C10.5185 30.2042 8.89253 35.7709 7.93874 37.4043C7.52225 38.1175 6.9179 38.8306 7.09077 39.9228C7.64075 43.3976 6.16458 47.0831 6.42361 55.82C6.55065 60.105 6.73865 64.7672 8.66019 68.8998C11.4254 74.8468 13.8516 78.4004 16.0237 79.3443C17.5616 80.0127 20.1872 80.5123 24.7765 81.5938C27.1529 82.1539 31.0818 83.0424 39.0691 83.3978C47.0565 83.7533 58.748 83.5809 66.4203 83.8694C70.5082 84.0231 81.8892 85.3833 92.1302 86.8093M92.6412 39.8115C93.9179 37.583 97.5689 36.1859 101.747 35.4724M152.036 56.7577C150.411 56.2701 139.761 51.6544 138.546 51.0504C137.071 50.3174 126.533 47.4426 117.695 46.2662L92.6412 39.8115M117.695 46.2662C116.014 40.084 115.339 35.2786 112.068 35.014C110.443 34.8825 108.638 34.8537 106.796 34.9393M167.18 108.016C172.776 109.281 183.525 110.45 191.416 112.123C194.396 112.755 198.036 113.518 200.963 113.917C203.891 114.316 206.057 114.466 209.029 114.018C215.728 113.008 216.943 112.393 217.063 112.367C216.944 111.408 216.84 110.908 216.788 110.359C216.737 109.228 216.84 107.691 217.065 106.039C217.402 104.282 217.296 102.095 217.93 99.1954C218.436 96.882 221.139 92.1607 220.414 89.4773C219.025 84.3376 222.658 81.4653 220.601 79.2923C219.289 77.9067 213.039 75.9181 211.606 74.5655M167.18 108.016L175.431 108.996M152.036 56.7577C157.544 52.3117 153.438 56.0696 158.148 51.4656C162.857 46.8616 178.23 34.3074 178.23 34.3074C178.23 34.3074 208.82 10.5799 212.295 7.20335C213.272 6.78793 214.973 5.51463 216.095 4.91486C216.664 5.47497 217.466 9.72066 220.852 19.0125C222.944 24.7528 224.546 34.5977 225.963 40.3646C228.976 52.6229 230.66 60.3378 229.427 62.794C228.098 65.442 223.972 65.9087 219.909 68.6198C216.841 70.6666 214.367 72.1248 211.606 74.5655C208.986 76.8819 204.777 80.323 198.927 84.8962C194.109 88.662 189.296 93.5745 184.545 97.4312C180.223 100.939 173.772 104.567 167.18 108.016M94.6541 159.077C102.991 153.28 113.754 145.585 121.967 139.812C122.508 139.432 123.035 139.06 123.547 138.696C132.029 132.67 136.196 129.094 138.682 127.043C141.882 124.404 148.418 120.757 157.095 114.779C162.157 111.29 164.187 109.582 167.18 108.016M110.755 89.9436C109.213 89.3608 101.11 88.0597 92.1302 86.8093M110.755 89.9436C113.749 87.3725 116.15 85.3666 117.654 84.3129M110.755 89.9436C110.689 89.9996 110.624 90.056 110.558 90.1125M110.755 89.9436L110.558 90.1125M152.036 56.7577C146.528 61.2036 131.595 73.676 127.606 76.7776C126.194 77.8756 124.993 78.8081 123.945 79.6173C121.104 81.8103 119.389 83.0965 117.654 84.3129M117.654 84.3129C116.118 85.3896 113.644 87.4605 110.558 90.1125M121.967 139.812C121.407 146.831 120.244 155.327 118.317 164.129C116.917 170.53 116.266 181.902 115.94 189.808C115.699 195.653 116.013 218.971 117.281 238.986C117.737 246.18 117.925 253.596 118.079 259.634L118.079 259.636C118.16 262.828 118.232 265.635 118.328 267.821C118.53 272.432 117.651 283.246 116.845 293.157C116.431 298.253 116.036 303.11 115.817 306.762C115.447 312.957 114.859 320.926 114.313 328.327L114.313 328.332C113.987 332.757 113.675 336.979 113.434 340.497C113.105 345.31 112.954 348.746 112.843 351.266C112.665 355.309 112.591 356.996 112.049 358.228C108.501 366.302 92.794 364.115 90.9919 362.936C85.0956 359.078 84.3767 345.701 83.7789 334.576C83.651 332.196 83.5286 329.919 83.3623 327.86C82.2862 314.544 82.0183 308.492 83.4431 302.233C84.6327 297.007 86.1247 291.94 87.7592 287.629C90.1301 281.377 89.9554 272.564 88.3318 263.527C88.2776 263.224 88.2229 262.922 88.1681 262.62C87.0034 256.189 85.8127 249.615 88.2464 239.409C89.1641 235.561 89.4766 231.94 89.8409 227.718C90.0477 225.322 90.2711 222.733 90.6314 219.799C91.5406 212.394 92.2959 207.04 92.8725 202.952C93.8055 196.339 94.2708 193.041 94.1638 189.731C93.8503 180.038 94.521 167.163 94.6541 159.077M94.6541 159.077C94.4493 159.219 93.69 159.195 93.4888 159.335C84.5616 165.561 79.7406 169.372 75.2653 172.424C70.7899 175.476 66.8061 177.654 61.4876 181.07C49.4546 188.8 41.2776 194.7 38.5194 196.156C36.8649 197.029 35.0188 197.375 32.9021 197.671C30.0622 198.069 27.5541 194.328 23.2553 190.042C20.6165 187.412 18.2008 185.329 15.0017 182.79C7.87839 177.136 4.83163 170.85 4.06275 167.385C3.3524 164.184 8.98033 161.295 13.1839 157.761C17.1488 154.427 21.602 153.104 26.9595 149.109C34.5374 143.459 40.3442 138.756 44.6224 136.224C47.7426 134.377 52.9259 131.624 59.9044 127.16C66.8382 122.725 75.4235 116.743 80.1626 113.441L80.2539 113.378C84.2603 110.586 88.4171 107.741 92.3085 104.949M92.3085 104.949C92.3817 103.172 92.4764 101.304 92.584 99.3395C92.7156 96.9367 92.539 93.9713 92.3479 90.7634C92.2714 89.4775 92.1925 88.1526 92.1302 86.8093M110.558 90.1125C109.485 91.035 108.337 92.0278 107.13 93.0735C106.807 93.3531 106.48 93.6364 106.148 93.9232C104.914 94.992 103.623 96.1088 102.29 97.2563C99.4351 99.7132 95.9906 102.308 92.3085 104.949M101.747 35.4724C102.101 35.5338 102.386 35.6402 102.589 35.7162C102.746 35.7745 102.854 35.8148 102.908 35.8029C104.395 35.5264 105.762 35.2162 106.796 34.9393M101.747 35.4724C103.386 35.1925 105.107 35.0178 106.796 34.9393M101.747 35.4724C101.534 35.4353 101.295 35.4147 101.035 35.4271C99.0908 35.52 95.5795 30.8767 92.5889 27.0727C90.9838 25.031 90.5124 21.446 90.4989 18.7154C90.4867 16.2317 93.647 14.0677 96.6676 12.1742C101.517 9.13426 106.608 9.62704 108.497 10.3196C110.603 11.0914 112.189 14.4264 113.961 21.2653C115.135 25.7983 112.394 29.773 110.522 32.8456C109.783 33.6214 109.061 34.149 107.621 34.704C107.379 34.7784 107.102 34.8574 106.796 34.9393M106.148 93.9232L107.13 93.0735" stroke="black" stroke-width="8" stroke-linecap="round"/>
</svg>
