<svg width="414" height="425" viewBox="0 0 414 425" fill="none" xmlns="http://www.w3.org/2000/svg">
<path d="M298.224 304.458C298.795 305.077 284.732 270.972 287.326 272.999M287.326 272.999C288.221 273.698 289.173 274.477 290.137 275.335C293.989 278.759 293.155 287.922 295.707 302.664C296.833 309.167 298.725 312.994 299.959 314.996C301.184 316.982 303.693 318.033 305.943 319.297C307.012 319.897 307.251 321.346 307.196 322.583C306.966 327.79 303.934 332.129 303.879 343.867C303.845 351.013 308.311 356.869 308.149 377.147C308.081 385.696 310.069 392.632 311.934 397.008C313.682 401.112 315.831 423.094 316.845 439.013C317.407 447.836 321.971 452.203 321.261 459.371C320.408 467.992 318.271 492.88 319.199 506.55C319.514 511.187 337.807 512.261 348.031 513.397C353.761 514.033 358.542 511.654 362.379 508.206C365.824 505.109 364.887 498.034 364.868 485.86C364.851 475.149 356.362 464.856 354.533 457.662C348.655 434.549 354.103 418.687 352.198 413.828C347.375 401.524 349.935 375.863 347.113 362.837C345.46 355.202 342.666 350.301 343.722 344.943C345.618 335.321 347.655 324.907 345.937 314.621C344.986 308.925 338.578 306.224 333.181 303.427C331.027 302.31 331.416 293.577 331.711 277.367C331.827 270.999 327.486 266.916 320.365 261.002C316.237 257.574 314.15 252.347 312.259 246.974C309.35 238.707 306.996 233.566 305.019 228.995C302.665 223.552 298.856 218.837 296.332 215.109C293.924 211.554 292.385 207.402 289.105 204.617C287.407 203.176 285.577 201.832 283.858 200.743C283.042 200.226 281.914 200.687 280.902 201.481C276.146 205.207 275.846 217.147 275.239 226.989C274.314 241.974 277.889 246.372 280.354 250.3C283.017 254.542 284.424 259.595 284.955 265.142C285.358 267.804 285.962 270.102 286.858 272.153C286.998 272.425 287.15 272.701 287.326 272.999ZM287.326 272.999C287.846 273.876 304.759 310.399 306.016 312.118M253.021 188.577C257.326 185.85 265.461 186.042 272.67 188.218C275.414 189.967 277.383 191.717 279.058 193.952C280.055 195.379 281.35 197.402 283.851 201.127C284.597 202.276 285.529 207.371 288.055 213.491M283.851 201.127C283.973 203.132 285.631 207.801 288.055 213.491M288.055 213.491C290.725 219.961 291.119 228.036 289.174 238.772C288.014 245.179 280.665 251.467 275.239 257.272C272.418 260.29 262.19 270.587 244.465 289.957C227.726 308.249 220.434 319.579 218.251 321.947C214.571 325.938 211.717 329.339 210.36 329.844C205.077 331.806 209.697 315.897 209.907 312.225C210.039 309.896 204.249 321.746 197.601 331.287C193.249 337.534 185.999 344.446 174.917 355.195C154.445 375.049 148.248 378.086 144.75 383.717C143.429 385.845 142.295 387.978 140.001 389.702C134.953 393.496 126.728 393.528 122.285 392.772C115.604 391.635 118.543 371.853 119.857 360.411C120.332 356.27 122.836 353.673 123.818 351.948C124.827 350.175 122.764 347.751 122.954 345.539C123.501 339.192 134.838 336.47 141.213 333.497C145.788 331.363 148.273 326.789 150.059 321.819C150.683 320.082 150.295 317.377 149.754 315.952C148.947 313.825 146.162 313.546 144.944 312.033C141.356 307.578 152.789 299.786 155.107 295.177C156.724 291.964 158.986 289.316 159.463 287.31C159.867 285.609 156.126 285.205 154.524 283.995C153.108 282.927 153.504 280.365 153.988 278.042M288.055 213.491C292.571 224.093 299.746 238.243 304.604 245.33C307.491 249.541 331.8 247.55 345.287 246.25L345.391 246.24C346.563 246.125 347.754 246.009 349.558 247.287C363.732 257.328 371.947 277.08 375.808 285.502C378.231 290.786 377.557 295.3 378.142 297.414C378.431 298.463 378.931 299.394 380.795 298.463C382.659 297.532 385.928 294.694 388.42 293.683C390.912 292.672 392.527 293.574 393.871 294.683C400.598 300.236 407.481 311.083 413.762 317.012C418.783 321.752 421.903 331.809 423.172 340.731C423.415 342.443 423.82 343.51 424.548 344.15C425.276 344.791 426.297 344.976 427.368 344.04C433.098 339.03 433.298 332.508 435.993 328.871C437.95 326.23 442.309 328.612 444.724 329.76C452.328 333.374 458.536 344.787 465.288 358.16C468.771 365.057 473.601 377.791 476.663 383.796C479.726 389.801 480.435 388.895 481.414 385.707C484.029 377.191 485.447 361.161 486.092 344.364C486.426 335.67 480.53 320.646 472.805 300.963L472.378 299.875C468.054 288.855 461.629 282.794 449.707 272.872C443.766 267.928 438.8 264.172 434.173 261.133C431.913 259.648 429.959 258.217 429.053 256.029C425.36 247.116 424.771 234.936 421.926 231.338C418.688 227.241 412.679 224.628 405.157 220.34C392.437 213.091 384.567 212.848 377.976 211.345C376.38 210.981 375.053 210.72 374.038 210.159C373.022 209.597 372.357 208.75 372.567 208.061C373.792 204.056 380.354 204.141 385.393 201.913C387.797 200.849 389.669 199.445 390.989 197.419C391.115 197.226 391.228 197.018 391.326 196.801M153.988 278.042C154.033 277.823 154.08 277.607 154.125 277.394M153.988 278.042C158.575 275.99 162.15 273.775 165.409 270.064C167.047 268.199 168.644 265.872 170.695 262.786C174.107 257.652 178.774 250.414 186.97 239.701L187.24 239.348C201.98 220.078 208.407 211.677 216.669 207.015C220.648 204.77 234.969 198.994 244.46 195.929M153.988 278.042C151.601 279.109 148.94 280.132 145.907 281.298L145.543 281.437C140.436 283.401 134.832 284.686 127.924 288.041C119.661 292.055 115.911 295.55 107.075 300.052C99.0465 304.144 88.4659 306.155 77.5448 307.341C51.7402 310.144 47.5522 304.234 41.4219 301.497C30.9053 296.803 26.9221 295.59 25.1047 293.987C19.4922 289.036 43.6813 285.686 60.918 272.398C67.1231 267.614 73.5687 259.624 81.5515 246.999C90.1905 233.337 92.0881 223.511 95.5114 216.954C99.1075 210.067 108.133 200.26 113.279 196.366C119.285 191.82 138.325 192.461 148.704 190.375C153.283 189.455 152.069 182.041 153.476 177.922C154.909 173.726 159.281 171.094 164.39 168.399C173.736 163.471 180.694 165.373 185.54 162.335C186.564 161.693 187.435 160.94 188.23 160.18M204.937 242.914C206.356 241.498 203.083 238.008 200.927 233.923C200.416 232.955 201.478 231.69 202.805 230.75C205.893 228.561 209.396 228.129 211.056 227.22C212.732 226.301 211.683 223.379 211.45 221.421C210.904 216.827 229.418 207.706 238.09 201.381C240.162 199.87 242.266 197.955 244.46 195.929M244.46 195.929C246.974 193.609 249.605 191.145 252.44 188.981C252.625 188.84 252.819 188.705 253.021 188.577M244.46 195.929C248.143 194.741 251.098 193.96 252.44 193.952C252.11 193.369 252.631 190.858 253.021 188.577M253.021 188.577C253.322 186.818 253.545 185.196 253.24 184.698C250.238 180.015 249.184 180.329 242.879 171.917C237.768 166.05 232.871 160.693 226.915 158.824C216.723 155.627 200.116 151.293 191.846 156.857C190.624 157.679 189.529 158.939 188.23 160.18M188.23 160.18C189.952 160.222 191.511 160.238 192.859 160.238M188.23 160.18C175.797 159.878 154.847 158.241 143.291 151.735C131.141 144.894 116.297 136.81 107.252 134.071C97.2982 131.056 75.544 133.38 58.6437 128.727C41.189 123.922 28.5519 114.816 21.6346 113.046C15.159 111.388 8.9096 111.297 6.21838 110.231C-5.70263 105.507 25.3033 95.3403 29.114 92.6802C34.8504 88.6758 56.0627 94.437 66.7979 96.7944C75.184 98.6361 92.7073 88.0609 103.615 83.0905C110.676 79.8733 122.839 83.1052 130.578 85.4187C151.035 91.5343 164.778 97.9016 175.194 101.557C191.187 107.17 205.294 104.523 210.715 102.74C215.384 101.205 221.564 99.7038 226.772 101.615C229.312 102.548 230.442 105.385 232.181 106.592C233.046 107.193 234.274 107.062 234.879 105.738C235.484 104.415 235.531 101.723 236.201 100.277C236.87 98.8313 238.16 98.7138 239.503 99.2555C246.367 102.022 250.081 109.624 255.725 116.761M255.725 116.761C262.765 125.663 269.903 138.556 276.514 157.337C276.612 157.72 276.706 158.09 276.795 158.449M255.725 116.761C255.655 110.685 257.133 81.1843 252.01 65.6369C250.698 61.6568 240.194 49.6759 225.486 32.4777C211.771 16.4407 202.969 8.65045 197.791 3.5585C197.053 2.83258 210.951 8.94485 227.939 17.3095C241.356 23.9164 252.077 31.5777 257.033 37.351C260.247 41.096 262.697 45.1269 266.943 50.5911C272.721 58.025 274.195 62.7284 276.195 63.8516C278.78 65.3032 282.032 64.6843 284.158 65.9033C288.607 68.4538 290.324 76.3812 291.528 84.4459C292.898 93.6178 291.381 100.983 291.235 102.511C291.149 103.409 293.362 99.6745 295.701 97.7811C300.714 93.7227 309.1 96.1465 311.041 97.328C313.092 98.5765 313.83 104.412 314.638 111.275C314.914 113.619 316.787 113.24 319.008 112.543C329.022 109.401 333.786 104.711 336.946 100.272C337.815 99.0507 338.417 97.4049 338.925 97.2537C344.198 95.6834 338.582 109.785 338.419 111.062C337.503 118.214 354.553 100.783 359.437 99.3956C360.521 99.0875 361.622 99.3192 362.643 99.7281C367.431 101.646 369.552 108.812 371.45 116.336C373.239 123.431 368.834 127.755 365.593 131.541C364.557 132.75 360.245 133.507 353.123 134.08M276.795 158.449C277.92 162.96 278.365 165.581 278.56 167.735C278.661 168.983 278.75 170.371 278.842 171.801M276.795 158.449C277.636 157.25 278.735 156.098 280.141 154.979C286.376 149.831 291.369 145.542 296.078 144.008C303.315 141.649 313.555 135.99 336.285 135.018C342.95 134.734 348.602 134.444 353.123 134.08M276.795 158.449C276.071 159.482 275.537 160.55 275.165 161.662C274.715 162.791 274.182 163.741 271.553 166.924M353.123 134.08C350.305 134.055 347.939 133.986 346.581 133.986M324.211 183.188C330.843 182.045 339.297 182.121 350.452 185.248C356.178 186.852 361.176 189.349 365.445 191.602C370.281 194.153 374.183 196.391 377.15 196.664C380.716 196.992 385.904 196.893 391.326 196.801C399.136 196.669 407.43 196.552 412.052 197.746C417.497 199.154 421.637 201.461 426.77 202.141C434.191 203.124 443.525 202.857 464.234 209.007C491.293 217.042 509.577 222.749 513.115 223.951C516.24 225.012 519.08 225.453 521.445 226.295C527.281 228.374 534.292 231.44 540.427 234.45C544.696 236.545 551.444 249.663 551.419 244.045C551.416 243.322 552.975 238.133 542.99 226.515C534.905 217.109 526.393 208.418 520.226 204.592C510.637 198.644 496.254 198.691 495.582 192.335C495.367 190.298 495.988 187.636 494.245 185.681C489.683 180.565 473.496 177.35 477.867 173.506C480.96 170.786 488.147 167.024 490.287 161.153C490.722 159.96 490.946 158.386 490.026 158.131C487.825 157.522 484.978 158.064 482.423 157.672C481.151 157.476 479.549 156.772 480.178 155.771C481.993 152.885 499.015 136.416 491.733 137.046C489.517 137.238 480.971 145.97 459.571 145.222C425.555 144.034 413.725 141.512 409.2 137.656C405.488 134.493 399.484 127.986 391.707 128.046C383.858 128.106 378.669 132.56 364.841 133.743C360.963 134.075 356.683 134.112 353.123 134.08M365.445 191.602C364.321 191.594 363.341 191.514 362.56 191.328C357.808 190.191 353.563 187.075 335.479 184.529C331.377 183.952 327.633 183.512 324.211 183.188M324.211 183.188C314.539 184.854 308.743 189.112 304.094 190.28C296.859 192.099 291.97 187.354 288.237 184.82M324.211 183.188C302.502 181.128 293.736 183.683 288.237 184.82M288.237 184.82C288.176 184.779 288.115 184.738 288.055 184.698C286.277 183.515 284.316 182.566 282.45 181.583M288.237 184.82C286.621 185.154 285.288 185.366 283.991 185.302C282.843 184.595 282.597 183.076 282.465 181.737C282.46 181.685 282.455 181.634 282.45 181.583M282.45 181.583C280.314 180.457 278.303 179.288 276.834 177.674C275.089 176.314 273.2 175.065 271.857 173.463C271.371 172.52 271.284 171.316 271.193 170.075M282.45 181.583C282.331 180.309 282.302 179.161 281.799 176.073M278.44 169.956C278.597 169.956 291.997 169.956 312.96 169.751C325.883 167.667 335.567 162.14 342.654 157.616C344.447 156.637 346.745 155.602 351.491 153.139M281.632 152.648C283.082 151.563 286.994 146.739 288.902 140.013C289.276 132.675 288.966 125.635 287.943 121C287.35 118.807 286.606 116.938 285.127 114.334M269.932 160.439C265.662 160.439 255.351 160.104 244.2 156.767C236.621 154.499 231.751 148.569 227.322 143.155C222.22 138.236 217.988 136.182 212.239 135.259C210.551 135.127 208.722 135.097 206.838 135.066M255.121 190.267C242.665 190.267 215.049 190.724 207.518 193.108C202.06 194.836 197.795 196.655 187.858 196.577C185.454 196.336 183.953 195.854 182.554 195.236C181.156 194.617 179.907 193.878 177.347 192.068M248.815 194.408C237.198 194.408 209.501 195.583 203.948 198.599C197.988 201.836 193.647 206.515 185.504 209.563C182.957 210.29 179.837 211.017 176.154 211.407C172.47 211.797 168.317 211.83 164.039 211.863M259.992 210.939C259.958 214.575 258.993 223.651 256.2 228.491C250.891 235.454 242.968 242.225 234.764 246.868C233.441 247.744 232.886 248.665 229.589 248.108M288.939 271.19C289.593 271.366 292.496 272.399 299.021 273.654C305.027 274.809 309.406 273.9 310.846 273.375C311.655 272.993 312.622 272.376 314.694 270.579C316.767 268.782 319.914 265.824 323.365 262.637M300.783 312.334C300.87 312.334 305.646 312.259 313.214 312.073C319.517 311.918 323.691 309.245 325.325 307.749C325.961 307.042 326.907 305.909 327.487 305.158C328.067 304.407 328.253 304.071 328.444 303.725M305.732 346.778C306.351 346.82 308.361 347.143 313.361 347.79C317.528 348.33 325.064 348.776 329.124 349.02C333.185 349.265 333.555 349.161 334.477 348.624C335.399 348.088 336.862 347.122 338.488 345.921M311.375 388.441C311.375 388.452 311.375 388.463 314.931 388.464C318.487 388.464 325.6 388.452 329.653 388.363C336.452 387.472 340.598 385.422 342.758 383.641C343.086 383.298 343.268 383.058 343.787 382.304M241.006 198.634C241.006 201.751 243.552 206.579 240.195 210.709C239.346 211.755 238.48 212.566 238.637 213.092C239.631 216.432 246.656 211.581 251.04 209.443C257.451 206.316 251.796 231.822 250.205 240.042C249.778 242.25 249.775 245.081 250.607 245.576C258.88 250.491 264.039 228.718 266.243 220.497C269.514 208.296 269.076 202.045 270.068 200.537C271.109 198.954 275.473 201.091 279.303 201.782C280.749 202.043 281.263 200.632 281.517 199.443C281.772 198.254 281.772 196.948 282.089 195.855C282.405 194.762 283.039 193.92 284.219 193.688C291.378 192.28 298.39 198.444 304.426 201.796C307.834 203.689 310.816 204.679 312.099 204.487C317.139 203.73 302.86 190.956 297.067 185.017C295.407 183.316 294.004 181.779 293.74 179.715C293.08 174.566 299.743 171.163 300.046 166.347C300.196 163.953 297.584 162.326 295.591 161.14C291.828 158.903 283.848 159.824 278.134 160.399C273.417 160.873 270.431 155.111 258.962 154.179C251.468 153.569 246.846 149.772 243.216 147.646C239.099 145.235 243.371 158.792 242.9 164.848C242.747 166.829 241.113 166.287 239.656 165.523C233.605 162.352 226.372 161.523 219.579 161.85C212.609 162.185 239.074 172.842 243.32 176.516C245.69 178.566 245.583 182.078 245.671 183.61C246.096 191.004 220.918 185.061 213.681 186.938C212.332 187.288 210.865 188.221 210.663 189.067C208.933 196.31 232.082 196.482 241.006 198.634Z" stroke="black" stroke-width="7" stroke-linecap="round"/>
</svg>
