<svg width="23" height="23" viewBox="0 0 23 23" fill="none" xmlns="http://www.w3.org/2000/svg">
<path fill-rule="evenodd" clip-rule="evenodd" d="M0.246616 1.46944C0.246616 0.889928 0.276574 -0.0706473 0.384745 0.00411863C0.715508 0.232736 1.47586 0.239959 2.29854 0.132335C2.51781 0.103649 3.10552 0.0926039 4.0619 0.0989445C4.50792 0.101901 4.87405 0.110576 5.34929 0.11629C5.82453 0.122003 6.39777 0.12609 6.75543 0.136943C7.66375 0.164508 8.3233 0.199676 8.43021 0.216543C8.48061 0.224494 8.51365 0.267776 8.53763 0.31086C8.58655 0.398777 8.6024 1.06446 8.63733 2.26824C8.65465 2.86489 8.67152 3.43268 8.68632 3.7713C8.70517 4.20261 8.72613 4.49641 8.72392 4.92162C8.71994 5.69113 8.76499 5.97834 8.82847 6.21551C8.87225 6.37906 8.92839 6.53747 9.04146 6.65757C9.15385 6.77695 9.32761 6.72249 9.41306 6.70672C9.45652 6.6987 9.49119 6.65941 9.5134 6.62263C9.60853 6.46515 9.57808 6.20842 9.61485 5.95984C9.66145 5.64478 9.6506 4.74604 9.68122 4.20229C9.6979 3.90605 9.79259 3.53886 9.80852 3.13006C9.82693 2.6573 9.73752 2.09293 9.68715 1.18807C9.65477 0.606263 9.70921 0.42723 9.80228 0.228066C9.9075 0.00289033 10.4772 0.165403 10.7362 0.247987C10.8351 0.279535 11.1262 0.290233 11.4947 0.394932C12.0728 0.559168 11.7022 1.2406 11.7169 1.54575C11.7205 1.61955 11.7262 1.68164 11.7324 2.16867C11.7385 2.65569 11.7447 3.56578 11.7541 4.14866C11.7672 4.95983 11.8468 5.41626 11.9541 5.796C12.0633 6.18291 12.1243 6.34523 12.1555 6.51797C12.1877 6.69618 12.2398 6.81341 12.3019 6.87472C12.4961 7.0664 12.9676 6.90728 13.1274 6.82448C13.2983 6.73589 13.1968 5.70816 13.2113 4.89064C13.2166 4.59721 13.2155 4.06498 13.2135 3.61639C13.2099 2.81892 13.1991 2.31068 13.1913 1.87418C13.17 0.689709 13.1463 0.516988 13.1499 0.25476C13.1549 -0.102586 14.034 0.136269 14.2115 0.112284C14.6685 0.0505018 15.3511 0.415019 15.5476 0.403405C15.94 0.380222 16.6613 0.244284 17.4541 0.253635C18.2195 0.262662 18.8771 0.303106 19.3291 0.310394C19.5793 0.31443 20.315 0.336944 21.3393 0.349908C21.702 0.354499 21.7457 0.36853 21.784 0.388311C21.9363 0.467011 21.9337 0.70792 21.9808 1.0959C22.0014 1.26494 22.0137 1.38073 22.017 1.46884C22.0205 1.56195 21.4254 1.61266 20.4865 1.61708C19.9623 1.61956 19.3503 1.6452 18.9034 1.62882C18.644 1.61931 18.2849 1.57041 17.8541 1.49844C17.5794 1.45255 16.9333 1.38082 16.4856 1.39212C16.2133 1.39899 15.9757 1.47315 15.7819 1.50126C15.6575 1.51929 15.5231 1.53329 15.4218 1.55952C15.2089 1.61469 15.374 2.03953 15.3938 2.57237C15.4028 2.81301 15.4747 2.99167 15.5683 3.14662C15.6649 3.30642 15.9087 3.27987 16.2666 3.31488C17.2376 3.40983 17.5662 3.3094 17.924 3.29218C18.1938 3.27919 18.5071 3.22438 18.7294 3.21416C18.7853 3.21158 18.8356 3.20705 19.2837 3.20304C19.7318 3.19902 20.5762 3.19509 21.0337 3.19728C21.528 3.19965 21.6239 3.21896 21.7064 3.23559L21.7107 3.23645C21.7918 3.25276 21.8356 3.33672 21.8665 3.41817C21.9471 3.63035 21.9229 3.94151 21.8266 4.60208C21.7768 4.94338 21.203 4.71681 21.0087 4.68145C20.7123 4.62752 20.0128 4.57786 19.1515 4.57054C18.4988 4.56499 18.3238 4.50163 18.0741 4.483C17.2834 4.424 16.4636 4.47411 16.1071 4.49348C15.8662 4.50656 15.6419 4.60812 15.5039 4.72039C15.0489 5.09051 15.5112 6.4443 15.5996 6.66934C15.6398 6.77181 15.7035 6.86395 15.7886 6.94112C16.0043 7.13693 16.3945 7.136 16.8638 7.08436C17.3763 7.08436 20.7152 6.94112 20.7737 6.94112C20.8887 6.94112 21.5292 6.94209 21.6873 6.98488C22.0549 7.08436 22.0001 8.08803 22.0549 8.47031C22.07 8.57581 22.1014 8.69942 22.1227 9.03758C22.1649 9.71181 22.1175 10.2792 22.0771 10.507C22.0504 10.6572 22.0231 10.8379 21.9849 11.0647C21.9541 11.2468 21.9503 11.7939 21.9339 12.6625C21.9199 13.402 21.9342 13.8062 21.9372 13.8901C21.9383 13.9179 21.8758 13.8999 21.8482 13.9142C21.6647 14.0092 21.8806 14.4036 21.8822 15.3787C21.8825 15.5862 21.8705 15.6267 21.8466 15.6586C21.7334 15.8093 21.3901 15.7982 20.5618 15.8074C19.9909 15.8138 19.4541 15.7875 18.9974 15.8043C18.7683 15.8127 18.5477 15.8652 17.9878 15.907C17.428 15.9487 16.5365 15.9894 16.0641 16.0261C15.5918 16.0628 15.5658 16.0943 15.5514 16.1309C15.4685 16.3431 15.5407 16.6656 15.5763 16.9389C15.6121 17.2139 15.6442 17.5224 15.7665 17.647C15.9238 17.8071 16.5847 17.7785 17.217 17.7474C18.3285 17.6929 18.5277 17.7596 18.7223 17.7801C18.909 17.7996 19.4152 17.8121 19.8115 17.8319C19.9486 17.8387 20.0881 17.8476 20.4509 17.8557C21.2728 17.874 21.8592 17.891 21.9362 17.9661C22.1612 18.1856 21.9829 18.5541 21.9089 18.7541C21.828 18.9725 21.3757 18.8876 20.4163 18.8912C20.0942 18.8924 19.7205 18.8624 19.3294 18.8496C18.5414 18.8238 18.0613 18.8361 17.7886 18.8505C16.6572 18.9102 16.05 18.8872 15.8657 18.9108C15.6551 18.9378 15.5022 18.9709 15.4459 19.0445C15.282 19.2586 15.4069 19.5237 15.3811 19.7251C15.3728 19.7896 15.371 19.8779 15.385 19.9367C15.4266 20.1126 15.7203 20.1314 16.0371 20.1641C16.2144 20.1824 16.5301 20.1672 17.0882 20.1618C17.6464 20.1564 18.4384 20.146 18.8754 20.1459C19.5323 20.1459 19.8627 20.2134 20.3512 20.2281C21.2816 20.256 21.9231 20.2754 21.9674 20.3773C22.087 20.6528 22.1243 21.4697 22.1538 21.9721C22.1587 22.0555 21.5239 22.0647 20.6701 22.0532C19.9563 22.0437 19.3128 21.9328 19.0304 21.8978C18.4224 21.8226 18.2183 21.7905 17.8744 21.7673C17.3696 21.7333 16.985 21.7684 16.7124 21.794C16.1138 21.8502 15.6193 21.8875 15.3847 21.916C14.8452 21.9814 13.8739 21.9537 13.3462 21.8941C13.188 21.8762 13.2356 21.5256 13.2158 20.8549C13.2088 20.6172 13.208 20.3228 13.2039 19.9067C13.1944 18.9617 13.1815 18.3674 13.1644 18.2489C13.1418 18.0932 13.1348 17.5608 13.138 16.8485C13.1404 16.2956 13.212 16.0258 13.1865 15.9394C13.0923 15.6208 12.3651 15.9028 12.2036 15.9753C12.1265 16.0099 12.0949 16.1496 12.0659 16.5183C12.0062 17.2794 12.0659 17.8751 12.0917 18.2943C12.1113 18.6136 12.1053 19.1512 12.1094 19.5684C12.1193 20.5965 12.0888 20.8416 12.0712 21.5072C12.0654 21.7285 12.0455 21.8445 12.0089 21.9178C11.7694 22.3976 10.5346 22 10.4747 21.9849C10.4146 20.9659 10.3321 19.4399 10.3146 19.2759C10.2641 18.8012 10.2653 18.56 10.2504 18.031C10.2419 17.7285 10.1812 17.5362 10.1171 17.3608C10.0537 17.1871 9.98598 16.9567 9.88577 16.7159C9.74368 16.3744 9.68281 16.0896 9.45585 15.9064C9.36338 15.8318 9.13482 15.884 9.01572 15.8977C8.64994 15.9397 8.57875 16.659 8.52132 17.0063C8.49306 17.1772 8.46274 17.7031 8.45109 18.7196C8.44455 19.2909 8.4215 19.9746 8.41452 20.3469C8.40517 20.8455 8.44591 21.1321 8.46178 21.474C8.46977 21.6461 8.47792 21.83 8.46659 21.983C8.45956 22.0779 7.86623 22.088 7.02814 22.0838C6.43501 22.0808 6.21001 21.9756 5.80861 21.8968C5.51844 21.8399 5.18854 21.8116 4.87672 21.7884C4.58372 21.7665 4.29556 21.7421 3.86274 21.7439C3.40716 21.7458 2.94883 21.7528 2.65736 21.7275C2.43781 21.7084 2.24518 21.6687 1.32688 21.6591C0.570625 21.6512 0.12806 21.6258 0.0937782 21.5109C-0.00281178 21.1873 -0.00577266 20.9986 0.00345175 20.4226C0.00526154 20.3095 0.0696731 20.3056 0.145782 20.3024C0.482056 20.2883 1.01013 20.3375 1.65217 20.4012C1.89298 20.4251 2.07661 20.4493 2.33063 20.4622C2.55312 20.4736 2.91709 20.5196 3.50385 20.5364C3.76602 20.5439 4.53494 20.5096 5.0539 20.5351C5.24496 20.5445 5.97918 20.5707 6.42408 20.5457C6.46584 20.5433 6.50311 20.5202 6.51883 20.4881C6.59541 20.3317 6.49131 20.088 6.47282 19.8675C6.45447 19.6487 6.43418 19.4207 6.42535 19.2797C6.42105 19.211 6.41705 19.1483 6.23296 19.1142C5.26976 18.9359 5.05908 19.041 4.816 19.0164C4.48895 18.9832 4.08231 18.978 3.86311 18.9582C3.76453 18.9493 3.60416 18.9499 3.15852 18.9423C2.26566 18.9272 1.54536 18.9467 1.24806 18.9714C0.746502 19.0132 0.576227 18.9383 0.415687 18.8997C0.251607 18.8602 0.252797 18.6061 0.194717 18.4323C0.124876 18.2234 0.0906862 18.045 0.0977268 17.8549C0.104004 17.6854 0.487278 17.7827 1.11427 17.7707C1.28728 17.7674 1.85958 17.7588 2.93168 17.7804C4.01182 17.8021 4.63087 17.9067 4.76255 17.9313C5.20558 18.0142 5.92034 17.9534 6.38066 17.9054L6.39305 17.9041C6.47771 17.8953 6.51568 17.8914 6.53486 17.8677C6.83641 17.4946 6.52227 16.5706 6.48392 16.1976C6.47624 16.1229 6.42322 16.1132 6.35036 16.1048C6.01766 16.0665 5.13677 16.1088 4.54854 16.0946C4.31283 16.089 4.08696 16.042 3.67313 16.0138C3.44623 15.9983 3.06443 16.0077 2.48305 16.0045C1.90167 16.0012 1.13179 15.9954 0.719232 15.9713C0.306675 15.9472 0.274769 15.9051 0.238982 15.857C0.101531 15.6724 0.112848 15.3905 0.132246 14.4128C0.145307 13.7544 0.151679 12.5519 0.15398 11.9125C0.156424 11.2332 0.114328 10.8072 0.0682124 10.1845C0.0447267 9.86741 0.0206007 9.22999 0.00824091 8.22487C-0.00124732 7.45327 0.0322414 7.08527 0.126748 7.02111C0.393088 6.84031 1.13886 6.84057 1.90434 6.85739C2.21158 6.86414 2.48202 6.94616 2.68885 6.97086C3.13224 7.02381 3.80056 6.97041 4.27673 6.92362C5.29056 6.82401 5.58656 6.93801 6.30545 6.9231C6.44478 6.92021 6.45007 6.85007 6.47152 6.74255C6.6176 6.01031 6.56074 5.30329 6.52213 5.07506C6.50712 4.9863 6.50951 4.85398 6.45407 4.78815C6.34323 4.65654 6.11384 4.74088 5.73602 4.76027C4.24639 4.83673 3.95312 4.73505 3.71611 4.70931C3.52528 4.68859 3.24528 4.66286 2.44817 4.64345C2.12162 4.63549 1.9232 4.57499 1.2677 4.49443C0.610287 4.41364 0.196394 4.41608 0.174165 4.30673C0.107214 3.97737 0.135872 3.50146 0.149556 3.38891C0.159463 3.30742 0.319482 3.31671 0.466032 3.32522L0.471179 3.32552C0.619503 3.33412 1.35416 3.3401 2.43997 3.33249C3.04291 3.32827 3.27 3.28113 3.44707 3.26941C3.78821 3.24685 4.34857 3.25289 4.88735 3.2373C5.49242 3.21979 6.22646 3.2116 6.36771 3.20116C6.46716 3.19382 6.51399 3.06854 6.54821 2.96061C6.6192 2.73672 6.54855 2.32852 6.56965 2.09674C6.57978 1.98536 6.56176 1.88159 6.5295 1.80645C6.51362 1.76946 6.47617 1.74634 6.43786 1.73272C6.23483 1.66052 5.88736 1.68826 5.2265 1.65738C4.56486 1.62647 4.34858 1.54907 4.16123 1.51961C3.97129 1.48975 3.78419 1.48509 3.16462 1.48145C2.63508 1.47834 1.66878 1.47115 1.14675 1.46948C0.624725 1.4678 0.300093 1.46598 0.246616 1.46944ZM1.31748 9.84959C1.28808 10.2117 1.33909 14.2905 1.3831 14.6204C1.39106 14.6801 1.50889 14.6382 1.58361 14.6472C1.74832 14.6588 1.8695 14.6931 2.15048 14.6842C2.95788 14.6583 3.2228 14.6404 3.3096 14.5428C3.34709 14.5006 3.42533 10.814 3.42533 10.0349C3.42533 9.63771 3.53672 8.81568 3.33476 8.52725C3.31198 8.49472 3.28951 8.47308 3.24554 8.47134C3.14006 8.46714 2.73645 8.46178 2.15093 8.46384L2.13807 8.46388C1.7213 8.46534 1.5068 8.46609 1.47344 8.51742C1.43972 8.56931 1.40118 8.70631 1.35042 8.87403C1.30184 9.03456 1.28689 9.50205 1.31748 9.84959ZM4.75604 9.12786C4.75693 9.44782 4.72611 14.3257 4.71131 14.6447C4.73153 14.7444 5.09478 14.7452 5.87846 14.7408C6.21879 14.719 6.41394 14.684 6.49044 14.5867C6.52827 14.5385 6.54241 14.2077 6.55491 13.7362C6.56101 13.5065 6.56714 13.3025 6.57206 13.0695C6.57451 12.9534 6.59862 12.8399 6.60084 12.1168C6.60281 11.4763 6.5979 10.313 6.58987 9.7093C6.58128 9.06275 6.56353 8.96423 6.55035 8.83641C6.52025 8.5445 6.5232 8.35072 6.40934 8.28895C6.33892 8.25075 6.19513 8.22693 5.98578 8.24419C5.55936 8.27936 4.76191 8.12433 4.75087 8.3932C4.74203 8.60855 4.75506 8.77862 4.75604 9.12786ZM8.62806 10.3702C8.62806 10.7153 8.62477 10.7219 8.62806 10.7218C8.87144 10.7158 11.7951 10.6002 12.4015 10.5934C12.7239 10.5897 13.1518 10.5897 13.1518 10.5897C13.1518 10.5897 13.2147 10.5715 13.2186 10.4708C13.2385 9.95934 13.2275 9.79923 13.2493 9.43478C13.2599 9.25741 13.2799 8.74718 13.2341 8.44798C13.2253 8.39031 12.8031 8.37801 12.1384 8.35126C11.8797 8.34085 11.772 8.32109 11.5214 8.30342C11.2708 8.28576 10.889 8.27064 10.3891 8.27308C9.88921 8.27552 9.28947 8.29492 8.97046 8.3098C8.65145 8.32467 8.60291 8.33054 8.59999 8.35553C8.59398 8.407 8.62486 8.49502 8.62665 8.96678C8.62806 9.33805 8.62806 10.0243 8.62806 10.3696V10.3702ZM8.61153 14.3934C8.59822 14.7459 8.60831 14.7563 8.61153 14.7563C9.21643 14.7563 11.3074 14.7589 11.6549 14.7563C12.0024 14.7537 13.0689 14.7563 13.4145 14.7563C13.4897 14.7563 13.5083 13.9317 13.4717 13.3473C13.4526 13.0427 13.4292 12.9011 13.4145 12.7652L13.4136 12.7566C13.3809 12.4554 13.3496 12.1672 13.2011 12.1117C13.1464 12.0913 12.7667 12.0927 12.2415 12.0754C12.0273 12.0683 11.9676 12.0577 11.4333 12.0616C10.9288 12.0652 9.97799 12.0631 9.45072 12.0894C8.8209 12.1207 8.54495 12.1076 8.52372 12.247C8.50954 12.3402 8.57487 12.5319 8.59822 13.2432C8.60963 13.5906 8.62167 14.1249 8.61153 14.3934ZM15.0796 8.69816C14.8362 9.26858 14.7574 14.7337 15.2539 14.7337C15.8288 14.7337 17.41 14.7869 17.5282 14.6501C17.5853 14.584 17.6249 14.5182 17.652 14.4604C17.6802 14.4001 17.6841 14.0612 17.6669 13.5735C17.6575 13.3089 17.6475 13.1624 17.6413 12.9044C17.6367 12.715 17.6321 12.4138 17.6224 11.8212C17.6126 11.2285 17.6164 10.3695 17.5869 9.92265C17.5467 9.31305 17.5617 9.06244 17.439 8.82098C17.3396 8.62536 17.2538 8.4632 17.1533 8.39096C17.0437 8.31216 16.7448 8.25996 16.434 8.33069C15.8526 8.46299 15.5318 8.42074 15.2988 8.49981C15.232 8.52246 15.1388 8.55963 15.0796 8.69816ZM18.6414 9.75934C18.6553 10.2812 18.3761 14.6302 18.8187 14.6302C19.5087 14.6302 20.6248 14.6382 20.8061 14.5246C20.8697 14.4848 20.8924 14.3298 20.9154 14.0296C20.9444 13.6495 20.9733 13.2189 20.9694 12.8087C20.966 12.4463 20.9263 12.1075 20.8732 11.5809C20.8371 11.2221 20.7924 10.6873 20.7692 10.3916C20.7459 10.096 20.7436 10.0412 20.7425 9.79002C20.7394 9.10462 20.7394 8.63414 20.7211 8.57145C20.7045 8.51468 20.6921 8.43975 20.6358 8.39605L20.6335 8.39432C20.5363 8.31888 20.4211 8.22944 20.1211 8.23308C19.2155 8.24408 18.9007 8.18291 18.7829 8.31089C18.7293 8.36915 18.6827 8.42899 18.663 8.48795C18.6425 8.54948 18.6189 8.91443 18.6414 9.75934Z" fill="#EB5D10"/>
</svg>
