<svg width="41" height="24" viewBox="0 0 41 24" fill="none" xmlns="http://www.w3.org/2000/svg">
<path d="M38.7358 9.93876C37.8904 9.31022 37.0869 7.10255 35.6712 7.21701C33.452 7.39549 31.1072 11.4674 30.2737 13.485C29.0395 13.2852 28.0106 13.5936 27.4284 11.741C26.92 10.1192 29.1193 9.41886 30.174 8.51096C32.2676 6.70875 38.359 -0.325515 31.2228 1.19541C28.543 1.76575 27.5122 3.40695 25.596 4.05683C24.8324 4.31485 23.8255 4.09563 23.2991 4.536C22.4417 5.25766 21.7717 5.9541 21.7339 6.74754C21.696 7.52934 21.7339 7.94643 21.7279 8.3092C21.688 8.18505 21.6501 8.07059 21.6142 7.97359C21.4328 7.49637 20.2424 6.42745 19.7679 6.28002C17.6803 5.63595 16.5537 6.73784 15.166 7.70006C12.554 7.89793 9.06663 10.9611 7.43761 11.289C5.82256 11.6149 2.81377 10.9437 3.27635 8.80583C3.69108 6.88722 6.93715 6.59817 8.4545 5.88233C9.84226 5.22662 11.0206 3.55633 12.6477 3.78136C13.2259 3.8609 13.6107 4.35171 14.2508 4.35947C16.0832 4.38274 17.6464 2.32446 16.2806 0.933513C14.183 -1.20431 8.80144 0.819056 6.60217 2.1421C4.57438 3.36233 -0.252848 7.59336 0.0103467 10.059C0.0901026 10.8176 3.09291 13.9448 3.78479 14.1562C4.71594 14.4394 5.89035 14.0747 6.78362 13.7566C7.77658 13.4035 9.76051 12.5907 11.4174 11.8302C10.5162 14.2959 8.18533 16.9071 8.61202 19.462C8.64791 19.6831 9.12445 20.7714 9.24409 20.8801C9.34578 20.9732 11.2679 21.8927 11.4912 21.9083C12.1731 21.9548 13.8141 21.4155 14.4521 21.0974C15.0264 20.8122 16.8468 19.4503 17.4649 18.9886C18.4459 18.2553 18.8547 17.1069 19.7519 16.3678C20.9562 15.3745 22.1566 15.3726 22.4995 13.419C22.5135 13.3356 22.5234 13.2386 22.5294 13.1339C22.653 12.9399 22.7926 12.7672 22.9561 12.6353C23.6978 12.0417 25.8453 13.2444 26.3896 13.9273C27.1951 14.94 27.2689 16.4337 27.7794 17.6151C27.883 17.8557 28.3157 18.6782 28.6646 19.301C28.5829 19.751 28.537 20.1196 28.545 20.3485C28.5869 21.4543 28.8182 22.9539 29.8371 23.5941C31.2487 24.4826 33.2087 23.7415 34.5307 23.0024C35.6553 22.3719 37.5834 19.5823 37.7528 18.3252C37.9662 16.7286 35.7669 16.4822 34.6763 17.3649C33.9664 17.9372 34.423 18.8276 34.3014 19.5823C34.1239 20.6861 32.4351 21.9335 31.4461 21.0683C30.7224 20.4339 31.0653 19.4057 31.161 18.7345C31.2228 18.3038 31.2786 18.0051 31.482 17.4677C31.7233 16.8333 33.464 15.7877 34.1239 15.5433C35.2964 15.1087 36.714 15.1184 37.7588 14.5772C38.7059 14.0864 39.8903 12.4335 40.9829 11.8729C41.1903 10.4645 39.4516 10.4684 38.7398 9.93876H38.7358ZM17.8817 13.7721C17.1898 14.9516 18.4001 15.5219 17.0741 16.8663C16.5059 17.4425 12.7314 19.7316 12.1811 19.4853C12.0635 19.4329 11.8481 19.1787 11.8182 19.0488C11.6707 18.3989 13.1741 14.8953 13.4771 13.9486C13.9995 12.3133 13.5449 11.5955 15.0782 10.2705C15.4571 9.94264 16.8568 9.04639 17.3114 8.95327C18.8347 8.64482 20.6532 8.95327 20.7389 10.7652C20.8426 12.9612 18.747 12.2977 17.8817 13.7721ZM25.8233 9.51391C23.1136 10.901 23.4725 6.86588 24.7845 5.78921C26.3378 4.51466 28.9278 5.90949 30.6007 4.46228C31.6415 4.7106 30.7224 5.79697 30.2458 6.25674C29.6835 6.79798 26.4913 9.17442 25.8233 9.51585V9.51391ZM32.461 14.4065C31.825 13.9971 34.7002 8.52842 35.6034 12.3889L32.461 14.4065Z" fill="black"/>
</svg>
